<?xml version="1.0" standalone="no"?>
<!DOCTYPE svg PUBLIC "-//W3C//DTD SVG 1.1//EN" "http://www.w3.org/Graphics/SVG/1.1/DTD/svg11.dtd" >
<svg>
<metadata>
Created by FontForge 20090622 at Mon Oct 17 12:14:20 2016
 By deploy user
Copyright (c) 2005-2006 by Joshua Darden, Inc. All rights reserved.
</metadata>
<defs>
<font id="Omnes-Light" horiz-adv-x="500" >
  <font-face 
    font-family="Omnes-Light"
    font-weight="550"
    font-stretch="normal"
    units-per-em="1000"
    panose-1="2 0 6 6 4 0 0 2 0 4"
    ascent="800"
    descent="-200"
    x-height="473"
    cap-height="650"
    bbox="-83 -216.625 1003 878"
    underline-thickness="20"
    underline-position="-113"
    unicode-range="U+0020-U+FB02"
  />
<missing-glyph 
 />
    <glyph glyph-name=".notdef" 
 />
    <glyph glyph-name=".null" horiz-adv-x="0" 
 />
    <glyph glyph-name="nonmarkingreturn" horiz-adv-x="176" 
 />
    <glyph glyph-name="space" unicode=" " horiz-adv-x="176" 
 />
    <glyph glyph-name="lslash" unicode="&#x142;" horiz-adv-x="316" 
d="M153 -3q-22 0 -22 23v237l-101 -32q-2 0 -6 8t-4 15q0 8 7 16t28 14l76 24v371q0 1 5 3t12 2q12 0 21.5 -9t9.5 -38v-315l109 35q2 0 6 -8t4 -15q0 -8 -7.5 -16t-27.5 -14q-24 -7 -42 -13l-29 -9t-13 -5v-251q0 -23 -21 -23h-5v0z" />
    <glyph glyph-name="Scaron" unicode="&#x160;" horiz-adv-x="535" 
d="M273 -10q-72 0 -122.5 20.5t-78.5 49.5q-17 17 -24.5 32.5t-7.5 26.5q0 8 4.5 14t9.5 10t10 5.5t6 0.5q10 -22 27 -42.5t41.5 -37t58 -26.5t75.5 -10q80 0 125.5 35.5t45.5 96.5q0 35 -15.5 58.5t-41 39t-59 25t-70.5 18.5t-73 20.5t-64.5 31t-45.5 49.5t-17 76
q0 38 16 70t44.5 55t66.5 36t83 13q66 0 111.5 -19t70.5 -43q28 -30 28 -52q0 -8 -4.5 -14.5t-9.5 -10t-10 -5.5t-6 -1q-9 20 -24.5 38.5t-38 32.5t-51.5 22.5t-65 8.5q-35 0 -65 -9t-51.5 -26t-33.5 -41t-12 -54q0 -33 13.5 -54.5t37 -36t55.5 -23.5t70 -18
q39 -9 76.5 -21.5t67.5 -33t48 -51.5t18 -78q0 -40 -15.5 -73t-44.5 -56t-69 -36t-90 -13zM269 703q-2 0 -21.5 17t-45.5 47q-25 29 -38.5 47.5t-13.5 30.5q0 17 15 17q10 0 23 -12.5t42 -49.5l20 -27l20 -26l19.5 25.5l20.5 28.5q25 33 39 47t24 14q16 0 16 -17
q0 -11 -13 -29t-38 -47q-29 -32 -48 -49t-21 -17z" />
    <glyph glyph-name="scaron" unicode="&#x161;" horiz-adv-x="443" 
d="M222 -10q-63 0 -104.5 16.5t-63.5 38.5q-13 13 -18 22t-5 17t4 13t8.5 8t8.5 4t5 1q22 -34 62.5 -57t104.5 -23q65 0 100.5 26t35.5 66q0 24 -10.5 39.5t-30 25.5t-46.5 17t-60 14q-29 6 -59 13.5t-54 21.5t-39.5 36t-15.5 57q0 30 13 55.5t36 43.5t55.5 28t72.5 10
q56 0 94 -15.5t59 -36.5q18 -18 18 -35q0 -7 -4 -12.5t-8.5 -8.5t-8.5 -4t-5 0q-18 31 -56 51.5t-89 20.5q-62 0 -96.5 -25.5t-34.5 -64.5q0 -22 10 -37t28.5 -25t45 -17t58.5 -14q30 -6 61 -14t56 -22.5t41 -37t16 -57.5q0 -62 -49.5 -100.5t-135.5 -38.5zM217 528
q-2 0 -21.5 17t-45.5 47q-25 29 -38.5 47.5t-13.5 30.5q0 17 15 17q10 0 23 -12.5t42 -49.5l20 -27l20 -26l19.5 25.5l20.5 28.5q25 33 39 47t24 14q16 0 16 -17q0 -11 -13 -29t-38 -47q-29 -32 -48 -49t-21 -17z" />
    <glyph glyph-name="Yacute" unicode="&#xdd;" horiz-adv-x="538" 
d="M265 -3q-21 0 -21 23v257l-236 352q-1 5 4.5 10.5t14.5 8.5t19 0.5t18 -15.5l205 -311l205 310q9 14 19 16.5t18.5 -0.5t13.5 -9.5t4 -9.5l-235 -352v-257q0 -23 -22 -23h-7v0zM213 708q-1 2 7 12.5t23 26.5t36.5 35.5t47.5 38.5q17 13 27 17.5t18 4.5q9 0 15.5 -5.5
t6.5 -14.5q0 -10 -8 -19.5t-31 -26.5q-27 -19 -52 -33t-44.5 -22.5t-31.5 -11.5t-14 -2z" />
    <glyph glyph-name="yacute" unicode="&#xfd;" horiz-adv-x="458" 
d="M167 -193q-10 0 -18 5.5t-7 7.5l84 206q-13 0 -19 4t-11 15l-182 417q0 4 6.5 9t15.5 5.5t19 -6t18 -25.5l166 -391l147 388q8 21 18 28t19 6.5t15.5 -5.5t6.5 -8l-244 -624q-7 -20 -15.5 -26t-18.5 -6zM185 534q-1 2 7 12.5t23 26.5t36.5 35.5t47.5 38.5q17 13 27 17.5
t18 4.5q9 0 15.5 -5.5t6.5 -14.5q0 -10 -8 -19.5t-31 -26.5q-27 -19 -52 -33t-44.5 -22.5t-31.5 -11.5t-14 -2z" />
    <glyph glyph-name="Thorn" unicode="&#xde;" horiz-adv-x="552" 
d="M100 -3q-21 0 -21 23v607q0 23 21 23h7q21 0 21 -23v-106h147q115 0 175.5 -51t60.5 -142q0 -94 -60 -144.5t-181 -50.5h-142v-113q0 -23 -21 -23h-7v0zM274 177q94 0 140 38.5t46 110.5t-46 111t-139 39h-147v-299h146z" />
    <glyph glyph-name="thorn" unicode="&#xfe;" horiz-adv-x="573" 
d="M91 -193q-22 0 -22 23v843q0 1 4.5 3t11.5 2q13 0 22.5 -9t9.5 -38v-255q28 48 74 77.5t113 29.5q47 0 88 -17.5t71.5 -50t48 -77.5t17.5 -100t-17 -100.5t-47.5 -78.5t-72 -51t-91.5 -18q-36 0 -65.5 9t-53 24t-40 34t-25.5 39v-266q0 -13 -6 -18t-15 -5h-5v0zM297 32
q41 0 75 15t58 42t37.5 65t13.5 84q0 44 -14 81t-38 64t-57.5 42.5t-72.5 15.5q-69 0 -114.5 -35.5t-68.5 -93.5v-109q0 -36 14 -67t38.5 -54t57.5 -36.5t71 -13.5z" />
    <glyph glyph-name="Zcaron" unicode="&#x17d;" horiz-adv-x="585" 
d="M87 0q-22 0 -31.5 8t-9.5 20v7q0 11 5.5 21.5t24.5 33.5l397 512h-399q-23 0 -23 20v4q0 21 23 21h414q22 0 31 -8t9 -19v-7q0 -11 -7.5 -24t-21.5 -30l-399 -514h418q24 0 24 -20v-4q0 -21 -24 -21h-431v0zM286 703q-2 0 -21.5 17t-45.5 47q-25 29 -38.5 47.5
t-13.5 30.5q0 17 15 17q10 0 23 -12.5t42 -49.5l20 -27l20 -26l19.5 25.5l20.5 28.5q25 33 39 47t24 14q16 0 16 -17q0 -11 -13 -29t-38 -47q-29 -32 -48 -49t-21 -17z" />
    <glyph glyph-name="zcaron" unicode="&#x17e;" horiz-adv-x="460" 
d="M61 0q-14 0 -19 6t-5 15v7q0 7 4 13.5t15 19.5l299 371h-292q-25 0 -25 18v5q0 18 25 18h331q14 0 19 -6t5 -15v-4q0 -5 -4.5 -12t-14.5 -20l-302 -375h304q25 0 25 -18v-5q0 -18 -25 -18h-340v0zM226 528q-2 0 -21.5 17t-45.5 47q-25 29 -38.5 47.5t-13.5 30.5
q0 17 15 17q10 0 23 -12.5t42 -49.5l20 -27l20 -26l19.5 25.5l20.5 28.5q25 33 39 47t24 14q16 0 16 -17q0 -11 -13 -29t-38 -47q-29 -32 -48 -49t-21 -17z" />
    <glyph glyph-name="multiply" unicode="&#xd7;" horiz-adv-x="520" 
d="M95 94q-6 6 -7 14t8 17l136 140l-136 138q-9 9 -8 17t7 14l3 3q6 6 13.5 7t18.5 -10l132 -139l132 139q10 11 18 10t14 -7l3 -3q6 -6 6.5 -14t-8.5 -17l-135 -138l135 -140q9 -9 8.5 -17t-6.5 -14l-3 -3q-6 -6 -14 -7t-18 10l-132 140l-132 -140q-11 -11 -18.5 -10
t-13.5 7z" />
    <glyph glyph-name="Lslash" unicode="&#x141;" horiz-adv-x="527" 
d="M150 0q-14 0 -22 8.5t-8 21.5v216l-87 -28q-2 -1 -6.5 6t-4.5 16t8 17t28 14l62 20v336q0 23 21 23h7q22 0 22 -23v-320l209 67q2 1 6 -6t4 -16t-8 -17t-28 -14l-91 -30q-17 -6 -33.5 -11l-29.5 -9t-21 -7l-8 -3v-216h316q23 0 23 -21v-4q0 -20 -23 -20h-336v0z" />
    <glyph glyph-name="exclam" unicode="!" horiz-adv-x="232" 
d="M113 173q-11 0 -11 20l-16 428q-1 17 5 23t16 6h18q10 0 16 -6t5 -23l-15 -428q-1 -11 -2.5 -15.5t-9.5 -4.5h-6v0zM112 -5q-34 0 -34 35v7q0 35 34 35h8q34 0 34 -35v-7q0 -35 -34 -35h-8v0z" />
    <glyph glyph-name="quotedbl" unicode="&#x22;" horiz-adv-x="331" 
d="M229 410q-7 0 -9 5t-4 15l-13 180q-2 23 5.5 31.5t24.5 8.5t24.5 -8.5t5.5 -31.5l-14 -180q-1 -10 -3 -15t-9 -5h-8v0zM94 410q-7 0 -9 5t-4 15l-13 180q-2 23 5.5 31.5t24.5 8.5t24.5 -8.5t5.5 -31.5l-14 -180q-2 -20 -13 -20h-7v0z" />
    <glyph glyph-name="numbersign" unicode="#" horiz-adv-x="643" 
d="M125 -3q-14 0 -22 13.5t3 46.5l39 127h-107q-23 0 -23 19v4q0 20 23 20h119l3 8.5t7 22l9 31t11 35.5l30 96h-105q-23 0 -23 19v4q0 20 23 20h118l56 185q2 2 10 2q14 0 22 -13.5t-3 -46.5l-39 -127h175l57 185q2 2 9 2q14 0 22.5 -13.5t-2.5 -46.5l-39 -127h107
q23 0 23 -19v-4q0 -20 -23 -20h-120l-59 -193h105q23 0 23 -19v-4q0 -20 -23 -20h-118l-56 -185q-2 -2 -10 -2q-14 0 -22 13.5t3 46.5l39 127h-176l-56 -185q-2 -2 -10 -2zM381 226l59 195h-178l-60 -195h179z" />
    <glyph glyph-name="dollar" unicode="$" horiz-adv-x="535" 
d="M265 -99q-20 0 -20 23v68q-61 5 -104 24t-69 44q-17 17 -24 33t-7 27q0 8 4.5 14t9.5 9.5t10 5.5t6 1q8 -19 23 -38t36.5 -35t51 -26.5t66.5 -13.5v272q-36 9 -70.5 21t-61.5 31.5t-43 49t-16 72.5q0 35 14.5 65.5t40 53t60.5 36.5t75 17v65q0 23 20 23h5q19 0 19 -23
v-64q56 -4 96 -22t63 -41q13 -12 20.5 -26t7.5 -25q0 -8 -4.5 -14t-10 -9.5t-10 -5.5t-5.5 -1q-17 36 -56.5 65t-102.5 34v-261q38 -9 74.5 -21.5t65.5 -33t46.5 -51t17.5 -76.5q0 -37 -15 -68.5t-42 -54.5t-64.5 -37.5t-82.5 -16.5v-67q0 -23 -19 -23h-5v0zM250 610
q-63 -4 -103 -38.5t-40 -88.5q0 -29 10.5 -49t29.5 -34t45.5 -23.5t57.5 -17.5v251zM287 37q35 1 64 11t49.5 27t32 40.5t11.5 50.5q0 32 -12.5 54t-34.5 37t-50 24.5t-60 17.5v-262v0z" />
    <glyph glyph-name="percent" unicode="%" horiz-adv-x="708" 
d="M184 358q-30 0 -56.5 11.5t-45.5 31t-30 46t-11 56.5v7q0 30 11 56.5t30.5 46.5t46 31.5t56.5 11.5t56.5 -11.5t45.5 -31t30 -45.5t11 -56v-8q0 -30 -11 -56.5t-30.5 -46.5t-46 -31.5t-56.5 -11.5zM102 -6q-1 -1 -4.5 0t-7.5 3.5t-7.5 7t-3.5 10.5q0 11 4.5 19t17.5 22
l501 601q1 1 5 0t8 -3t7.5 -6.5t3.5 -11.5q0 -15 -23 -41l-501 -601v0zM523 -5q-31 0 -57 11.5t-45 31t-30 46t-11 56.5v7q0 30 11 56.5t30.5 46.5t45.5 31.5t56 11.5q31 0 57 -11.5t45.5 -31t30.5 -45.5t11 -56v-8q0 -30 -11 -56.5t-30.5 -46.5t-46 -31.5t-56.5 -11.5z
M185 397q44 0 72 30t28 75v10q0 23 -7.5 42t-21 33.5t-32 22.5t-40.5 8q-44 0 -71.5 -30.5t-27.5 -75.5v-10q0 -45 28 -75t72 -30zM524 34q43 0 71 30t28 75v10q0 45 -28 75.5t-72 30.5t-72 -30.5t-28 -75.5v-10q0 -45 28.5 -75t72.5 -30z" />
    <glyph glyph-name="ampersand" unicode="&#x26;" horiz-adv-x="641" 
d="M245 -10q-49 0 -89 13t-69 37t-45 59t-16 78q0 39 13.5 70t37 54.5t56 40.5t70.5 28q-26 29 -44 62.5t-18 74.5q0 31 11.5 58.5t32 47.5t49.5 32t64 12q33 0 60.5 -11t47.5 -30.5t31 -45.5t11 -55q0 -64 -45 -102t-121 -58l191 -179q23 39 40.5 84t26.5 89q5 21 13.5 29
t19.5 8q10 0 16 -5t6 -7q-13 -63 -35.5 -121.5t-53.5 -105.5l141 -129q2 -2 -3.5 -11.5t-23.5 -9.5q-8 0 -16.5 2.5t-20.5 13.5l-104 96q-45 -55 -104 -87t-130 -32zM252 384q70 17 110 46t40 84q0 21 -7.5 39.5t-21 32.5t-33 22t-43.5 8q-52 0 -80 -31.5t-28 -76.5
q0 -35 17 -65.5t46 -58.5zM248 32q63 0 113 29.5t87 77.5l-217 203q-32 -10 -60 -23.5t-48.5 -33t-32.5 -45.5t-12 -61q0 -68 46.5 -107.5t123.5 -39.5z" />
    <glyph glyph-name="quotesingle" unicode="'" horiz-adv-x="196" 
d="M94 410q-7 0 -9 5t-4 15l-13 180q-2 23 5.5 31.5t24.5 8.5t24.5 -8.5t5.5 -31.5l-14 -180q-2 -20 -13 -20h-7v0z" />
    <glyph glyph-name="parenleft" unicode="(" horiz-adv-x="351" 
d="M319 -195q-24 0 -60 15.5t-74 53.5q-57 57 -92.5 147.5t-35.5 206.5q0 56 10 107.5t27 96.5t40.5 82.5t50.5 64.5q38 38 74 54.5t60 16.5q22 0 22 -17q0 -5 -2.5 -11.5t-4.5 -7.5q-51 -11 -93 -45.5t-72 -86t-46 -116.5t-16 -137q0 -74 16 -139.5t46 -117.5t72 -86
t93 -45q2 -1 4.5 -7.5t2.5 -11.5q0 -17 -22 -17z" />
    <glyph glyph-name="parenright" unicode=")" horiz-adv-x="351" 
d="M32 -195q-22 0 -22 17q0 5 2.5 11.5t4.5 7.5q51 11 93 45t72 86t46 117.5t16 139.5q0 72 -16 137t-46 116.5t-72 86t-93 45.5q-2 1 -4.5 7.5t-2.5 11.5q0 17 22 17q24 0 60 -16.5t74 -54.5q27 -27 50.5 -64.5t40.5 -82.5t27 -96.5t10 -107.5q0 -116 -35.5 -206.5
t-92.5 -147.5q-38 -38 -74 -53.5t-60 -15.5z" />
    <glyph glyph-name="asterisk" unicode="*" horiz-adv-x="377" 
d="M90 372q-8 6 1 22l65 93l-107 39q-13 5 -13 14q0 25 24 19l110 -32l3 113q0 12 4.5 15.5t12.5 3.5t12 -3.5t5 -15.5l3 -113l109 32q25 6 25 -19q0 -8 -14 -14l-106 -39l64 -93q5 -8 4.5 -14t-2.5 -8q-8 -7 -15 -8t-15 10l-70 89l-71 -89q-8 -11 -15 -10t-14 8z" />
    <glyph glyph-name="plus" unicode="+" horiz-adv-x="520" 
d="M258 38q-10 0 -15.5 4.5t-5.5 18.5v184h-170q-14 0 -19 5t-5 14v5q0 9 5 14t19 5h170v172q0 23 21 23h4q21 0 21 -23v-172h170q14 0 19 -5t5 -14v-5q0 -9 -5 -14t-19 -5h-170v-184q0 -14 -5.5 -18.5t-15.5 -4.5h-4v0z" />
    <glyph glyph-name="comma" unicode="," horiz-adv-x="191" 
d="M41 -129q-1 -3 -6 -4t-10 0.5t-8 5t-1 9.5l59 169q5 14 10 20.5t19 6.5h4q9 0 15.5 -6.5t6.5 -19.5v-3q0 -6 -1.5 -14.5t-9.5 -21.5l-78 -142v0z" />
    <glyph glyph-name="hyphen" unicode="-" horiz-adv-x="351" 
d="M65 226q-23 0 -23 19v5q0 20 23 20h221q23 0 23 -20v-5q0 -19 -23 -19h-221v0z" />
    <glyph glyph-name="hyphen" unicode="&#xad;" horiz-adv-x="351" 
d="M65 226q-23 0 -23 19v5q0 20 23 20h221q23 0 23 -20v-5q0 -19 -23 -19h-221v0z" />
    <glyph glyph-name="period" unicode="." horiz-adv-x="191" 
d="M91 -5q-34 0 -34 35v7q0 35 34 35h8q35 0 35 -35v-7q0 -35 -35 -35h-8v0z" />
    <glyph glyph-name="slash" unicode="/" horiz-adv-x="317" 
d="M43 -193q-17 0 -26.5 10t1.5 46l240 785q0 1 3 1.5t6 0.5q17 0 26.5 -10t-1.5 -46l-240 -785q0 -1 -3 -1.5t-6 -0.5z" />
    <glyph glyph-name="zero" unicode="0" horiz-adv-x="625" 
d="M311 -10q-58 0 -104.5 21t-79.5 60t-50.5 95t-17.5 125v63q0 70 17.5 126t50.5 95.5t80 60.5t105 21t105 -21t80 -60.5t51 -95t18 -124.5v-63q0 -69 -18 -125t-51 -95.5t-80 -61t-106 -21.5zM312 33q48 0 85.5 18t64 51.5t40.5 82t14 108.5v60q0 60 -14.5 108.5t-41 82.5
t-64.5 52.5t-85 18.5t-84.5 -18t-63.5 -52t-40 -82.5t-14 -108.5v-60q0 -60 14 -108.5t40.5 -82.5t64 -52t84.5 -18z" />
    <glyph glyph-name="one" unicode="1" horiz-adv-x="336" 
d="M192 -3q-21 0 -21 23v544q-12 -20 -33 -31.5t-48 -11.5q-37 0 -57 20q-12 12 -12 28q0 13 7 20.5t9 6.5q8 -11 22.5 -18t34.5 -7q34 0 57.5 23t25.5 56h21q23 0 23 -24v-606q0 -23 -22 -23h-7v0z" />
    <glyph glyph-name="two" unicode="2" horiz-adv-x="514" 
d="M77 0q-34 0 -34 32v23q0 53 17 91.5t45.5 67.5t65.5 51t76 42l66.5 34.5t55.5 36t38 43.5t14 57q0 59 -41 96.5t-119 37.5q-41 0 -72 -11.5t-53 -31t-36 -45t-22 -53.5q0 -1 -5.5 -1.5t-12 2.5t-11.5 9t-5 16q0 14 11 41.5t37 52.5q28 28 70.5 47.5t101.5 19.5
q49 0 87 -13t64.5 -37t40.5 -57.5t14 -73.5q0 -41 -15 -71t-41 -53.5t-61 -42.5t-75 -38q-37 -18 -71 -37.5t-59.5 -44t-40.5 -55.5t-15 -73v-17h368q24 0 24 -20v-4q0 -21 -24 -21h-383v0z" />
    <glyph glyph-name="three" unicode="3" horiz-adv-x="521" 
d="M243 -10q-66 0 -113 20.5t-73 46.5q-21 21 -30.5 40.5t-9.5 31.5q0 10 4.5 16t9.5 9t9.5 4t5.5 0q9 -27 26.5 -50t43 -39.5t58 -26t70.5 -9.5q84 0 132.5 39t48.5 104q0 69 -47 106.5t-135 37.5h-68q-13 0 -18.5 6t-5.5 14v3q0 20 23 20h76q74 0 114.5 33.5t40.5 91.5
q0 57 -42.5 92t-118.5 35q-64 0 -111 -30.5t-67 -74.5q-1 -1 -5.5 0t-9.5 5t-9.5 9.5t-4.5 13.5q0 9 7.5 23t21.5 28q27 27 72.5 47.5t105.5 20.5q100 0 155.5 -45.5t55.5 -123.5q0 -57 -32 -93t-88 -50q65 -17 103 -59.5t38 -108.5q0 -43 -16 -77.5t-46.5 -59t-73.5 -37.5
t-97 -13z" />
    <glyph glyph-name="four" unicode="4" horiz-adv-x="567" 
d="M394 -3q-9 0 -15 7t-6 16v173h-300q-17 0 -26.5 7.5t-9.5 18.5v15q0 11 5.5 20t15.5 21l279 347q13 17 21 23.5t25 6.5q22 0 30.5 -8.5t8.5 -24.5v-381h98q23 0 23 -21v-4q0 -20 -23 -20h-98v-173q0 -23 -21 -23h-7v0zM375 237v367l-293 -367h293z" />
    <glyph glyph-name="five" unicode="5" horiz-adv-x="523" 
d="M254 -10q-63 0 -111.5 20t-77.5 49q-14 14 -22.5 29t-8.5 26q0 8 4.5 13.5t9.5 9t10 4.5t6 0q23 -47 72.5 -76.5t119.5 -29.5q42 0 75.5 11.5t57.5 32.5t37 51t13 67q0 71 -47.5 113t-126.5 42q-101 0 -170 -50q-33 4 -33 36v279q0 13 8.5 21.5t21.5 8.5h340q23 0 23 -21
v-4q0 -20 -23 -20h-322v-243q71 39 156 39q50 0 91 -14t70.5 -40.5t45.5 -63t16 -81.5q0 -49 -16.5 -87.5t-47 -65.5t-74 -41.5t-97.5 -14.5z" />
    <glyph glyph-name="six" unicode="6" horiz-adv-x="573" 
d="M303 32q39 0 72 12t56.5 34t36.5 52t13 66v5q0 72 -45.5 113t-128.5 41q-33 0 -63 -8.5t-56 -23t-46 -34t-32 -41.5q8 -105 59 -160.5t134 -55.5zM108 299q29 39 81.5 68.5t122.5 29.5q49 0 89.5 -14t69 -39t44 -60.5t15.5 -78.5v-4q0 -46 -16.5 -84.5t-46.5 -66.5
t-71 -44t-90 -16q-117 0 -182 77.5t-65 214.5v73q0 72 17.5 128t50 94.5t79 59t104.5 20.5q59 0 100.5 -17t64.5 -40q14 -15 20.5 -29t6.5 -23q0 -6 -4 -11.5t-9 -9t-9 -5.5t-5 -1q-21 38 -61.5 66t-103.5 28q-94 0 -148 -66t-54 -191v-59v0z" />
    <glyph glyph-name="seven" unicode="7" horiz-adv-x="503" 
d="M147 -3q-13 0 -21 9t-6 11l304 581h-374q-23 0 -23 22v4q0 23 23 23h402q17 0 23 -6.5t6 -15.5v-5q0 -10 -14 -36l-293 -568q-5 -11 -12 -15t-15 -4z" />
    <glyph glyph-name="eight" unicode="8" horiz-adv-x="566" 
d="M283 -10q-55 0 -99.5 13t-76 37t-48 57.5t-16.5 73.5q0 57 38 102.5t112 62.5q-66 15 -97.5 55t-31.5 93q0 38 15.5 69.5t44 54.5t69 36t90.5 13q103 0 160.5 -47t57.5 -125q0 -53 -31.5 -92.5t-96.5 -56.5q75 -16 112 -61t37 -104q0 -39 -17 -72.5t-48.5 -57.5
t-75.5 -37.5t-98 -13.5zM283 357q81 0 124.5 33.5t43.5 92.5q0 58 -44 95t-125 37q-83 0 -125.5 -36t-42.5 -96q0 -57 44.5 -91.5t124.5 -34.5zM283 32q94 0 141.5 38t47.5 103q0 63 -49.5 102t-139.5 39q-92 0 -141 -39t-49 -102q0 -62 49.5 -101.5t140.5 -39.5z" />
    <glyph glyph-name="nine" unicode="9" horiz-adv-x="573" 
d="M266 282q33 0 64 8.5t56.5 23.5t46 34.5t32.5 41.5q-7 109 -58.5 167t-136.5 58q-39 0 -71.5 -13t-56.5 -36.5t-37 -55t-13 -67.5v-6q0 -73 46 -114t128 -41zM466 339q-13 -19 -33.5 -37t-46.5 -32t-57.5 -22t-66.5 -8q-49 0 -89.5 14t-69 39t-44 61t-15.5 79v6
q0 46 16.5 85.5t46.5 69t71 46.5t90 17q56 0 101.5 -19t77.5 -56t50 -91.5t18 -125.5v-73q0 -150 -66 -226t-187 -76q-59 0 -101.5 16.5t-66.5 40.5q-16 17 -22.5 31t-6.5 24q0 7 4 12.5t9 9t9.5 5.5t5.5 1q20 -41 61.5 -69.5t107.5 -28.5q100 0 152 63t52 194v50v0z" />
    <glyph glyph-name="colon" unicode=":" horiz-adv-x="215" 
d="M103 349q-34 0 -34 34v8q0 16 9 25.5t25 9.5h8q17 0 26 -9.5t9 -25.5v-8q0 -34 -35 -34h-8v0zM103 -5q-34 0 -34 35v7q0 35 34 35h8q35 0 35 -35v-7q0 -35 -35 -35h-8v0z" />
    <glyph glyph-name="semicolon" unicode=";" horiz-adv-x="215" 
d="M103 349q-34 0 -34 34v8q0 16 9 25.5t25 9.5h8q17 0 26 -9.5t9 -25.5v-8q0 -34 -35 -34h-8v0zM53 -129q-1 -3 -6 -4t-10 0.5t-8 5t-1 9.5l59 169q5 14 10 20.5t19 6.5h4q9 0 15.5 -6.5t6.5 -19.5v-3q0 -6 -1.5 -14.5t-9.5 -21.5l-78 -142v0z" />
    <glyph glyph-name="less" unicode="&#x3c;" horiz-adv-x="460" 
d="M62 234q-8 5 -11.5 10.5t-3.5 21.5t3.5 21.5t11.5 10.5l327 181q2 1 9 -5.5t8 -16.5q1 -8 -5 -17t-26 -20l-281 -154l281 -153q20 -11 26 -20t5 -17q-1 -11 -7.5 -17.5t-9.5 -5.5z" />
    <glyph glyph-name="equal" unicode="=" horiz-adv-x="520" 
d="M77 349q-14 0 -18.5 5.5t-4.5 14.5v5q0 10 4.5 15t18.5 5h366q14 0 18.5 -5t4.5 -15v-5q0 -9 -4.5 -14.5t-18.5 -5.5h-366v0zM77 128q-14 0 -18.5 5t-4.5 15v5q0 9 4.5 14.5t18.5 5.5h366q14 0 18.5 -5.5t4.5 -14.5v-5q0 -10 -4.5 -15t-18.5 -5h-366v0z" />
    <glyph glyph-name="greater" unicode="&#x3e;" horiz-adv-x="460" 
d="M70 53q-2 -1 -8.5 5.5t-7.5 17.5q-1 8 5 17t25 20l282 153l-282 154q-19 11 -25.5 20t-4.5 17q1 10 7.5 16.5t8.5 5.5l327 -181q8 -5 12 -10.5t4 -21.5t-4 -21.5t-12 -10.5l-327 -181v0z" />
    <glyph glyph-name="question" unicode="?" horiz-adv-x="458" 
d="M202 172q-21 0 -21 17q1 43 11.5 73t26.5 51.5t35.5 37t39.5 28.5q17 11 32 22t26.5 24.5t18.5 30t7 38.5q0 54 -37.5 86.5t-102.5 32.5q-41 0 -70.5 -12t-49.5 -32t-31 -45.5t-15 -51.5q-1 -1 -6.5 -0.5t-12 3.5t-12 9.5t-5.5 16.5q0 14 10.5 42.5t36.5 54.5t64 42.5
t92 16.5q43 0 78 -12t59.5 -33t38 -50t13.5 -64q0 -29 -8.5 -51t-22.5 -39.5t-31.5 -31t-36.5 -25.5q-20 -13 -39 -27.5t-34 -33t-24 -44t-9 -60.5q0 -8 -6 -11t-15 -3zM198 -3q-29 0 -29 29v15q0 16 6 22.5t23 6.5h14q17 0 23.5 -6.5t6.5 -22.5v-15q0 -16 -6.5 -22.5
t-23.5 -6.5h-14v0z" />
    <glyph glyph-name="at" unicode="@" horiz-adv-x="735" 
d="M382 -10q-75 0 -137 24t-106.5 68t-68.5 105t-24 136q0 73 24 134.5t67.5 105.5t103 69t131.5 25q73 0 132.5 -21t101.5 -60.5t64.5 -95t22.5 -124.5q0 -89 -34 -139t-100 -50q-40 0 -66.5 21t-32.5 56q-14 -35 -42 -55.5t-70 -20.5q-28 0 -52.5 11t-42.5 31t-28.5 47
t-10.5 60t10 60.5t28 47t43 30.5t55 11q36 0 63.5 -17t41.5 -42v21q0 18 9 26.5t21 8.5q8 0 12.5 -2t4.5 -4v-160q0 -45 15.5 -69t50.5 -24q23 0 39.5 11.5t27 32t15.5 48.5t5 60q0 60 -20 109.5t-57 84t-89 53.5t-117 19q-64 0 -117 -22t-91 -62t-59 -95t-21 -120
t22 -119.5t61 -94.5t94 -62t121 -22q52 0 97.5 14.5t74.5 34.5q12 9 25 9q11 0 17 -10.5t4 -13.5q-16 -13 -39.5 -25.5t-51.5 -22t-60 -15.5t-67 -6zM359 210q41 0 68.5 27t27.5 67v52q-12 30 -36 49.5t-59 19.5q-44 0 -70.5 -30t-26.5 -78q0 -47 27 -77t69 -30z" />
    <glyph glyph-name="A" unicode="A" horiz-adv-x="597" 
d="M261 633q4 9 12 13.5t25 4.5q18 0 26 -4.5t12 -13.5l245 -621q1 -3 -5.5 -8t-16.5 -6.5t-20 3t-16 20.5l-81 203h-289l-81 -203q-6 -16 -16 -20.5t-19.5 -3t-16 6.5t-5.5 8zM426 268l-128 327l-129 -327h257z" />
    <glyph glyph-name="B" unicode="B" horiz-adv-x="595" 
d="M108 0q-13 0 -21 8.5t-8 21.5v587q0 13 8 21.5t21 8.5h205q104 0 157 -42.5t53 -122.5q0 -113 -124 -145q78 -14 116 -55.5t38 -104.5q0 -91 -57.5 -134t-175.5 -43h-212v0zM316 353q74 0 114.5 34t40.5 92q0 123 -158 123h-185v-249h188zM319 45q94 0 138 31t44 103
q0 130 -181 130h-192v-264h191z" />
    <glyph glyph-name="C" unicode="C" horiz-adv-x="657" 
d="M368 -10q-72 0 -131 24.5t-101 68.5t-65 105t-23 134t23.5 134.5t66 106t101.5 69.5t130 25q76 0 127 -23.5t80 -52.5q17 -17 25.5 -34t8.5 -27t-4 -16t-9.5 -9.5t-10 -4.5t-5.5 0q-26 54 -82.5 89t-131.5 35q-59 0 -108 -21.5t-84.5 -60.5t-55 -92.5t-19.5 -116.5
t19.5 -116t55 -91.5t85.5 -60.5t110 -22q45 0 81 11.5t63.5 31t46 44.5t27.5 52q1 1 6 0t11 -4t11 -9.5t5 -15.5q0 -11 -10.5 -33t-33.5 -44q-29 -29 -82 -52.5t-127 -23.5z" />
    <glyph glyph-name="D" unicode="D" horiz-adv-x="662" 
d="M108 0q-13 0 -21 8.5t-8 21.5v587q0 13 8 21.5t21 8.5h153q83 0 148.5 -22t111 -63.5t69.5 -101.5t24 -135q0 -76 -24.5 -136t-70.5 -102t-112.5 -64.5t-150.5 -22.5h-148v0zM259 44q146 0 224.5 73.5t78.5 206.5q0 65 -20.5 116.5t-59 87.5t-94.5 55.5t-127 19.5h-133
v-559h131z" />
    <glyph glyph-name="E" unicode="E" horiz-adv-x="564" 
d="M108 0q-13 0 -21 8.5t-8 21.5v587q0 13 8 21.5t21 8.5h388q23 0 23 -20v-5q0 -20 -23 -20h-368v-248h285q23 0 23 -20v-3q0 -21 -23 -21h-285v-265h377q23 0 23 -19v-5q0 -21 -23 -21h-397v0z" />
    <glyph glyph-name="F" unicode="F" horiz-adv-x="524" 
d="M100 -3q-21 0 -21 23v597q0 13 8 21.5t21 8.5h369q23 0 23 -20v-5q0 -20 -23 -20h-349v-269h260q23 0 23 -21v-3q0 -20 -23 -20h-260v-269q0 -23 -21 -23h-7v0z" />
    <glyph glyph-name="G" unicode="G" horiz-adv-x="694" 
d="M353 -10q-70 0 -126.5 25t-96 69.5t-61 105t-21.5 132.5q0 73 23.5 134.5t65.5 106t100.5 69.5t128.5 25q75 0 126 -23t79 -51q18 -18 26.5 -34.5t8.5 -24.5q0 -10 -4.5 -16.5t-10 -9.5t-10 -3.5t-5.5 0.5q-12 25 -32.5 46.5t-47.5 37.5t-60 25.5t-71 9.5
q-59 0 -107.5 -21.5t-83.5 -60.5t-54.5 -92.5t-19.5 -116.5t17.5 -116t51 -91.5t81.5 -60.5t109 -22q48 0 88.5 14.5t71 41t49 62.5t22.5 78v44h-200q-28 0 -28 20v3q0 22 28 22h207q17 0 27 -10.5t10 -27.5v-278q0 -1 -4.5 -3t-11.5 -2q-13 0 -20.5 9.5t-7.5 39.5v80
q-26 -63 -88.5 -99.5t-148.5 -36.5z" />
    <glyph glyph-name="H" unicode="H" horiz-adv-x="671" 
d="M100 -3q-21 0 -21 23v607q0 23 21 23h7q21 0 21 -23v-280h415v280q0 23 21 23h7q22 0 22 -23v-607q0 -23 -22 -23h-7q-21 0 -21 23v281h-415v-281q0 -23 -21 -23h-7v0z" />
    <glyph glyph-name="I" unicode="I" horiz-adv-x="227" 
d="M110 -3q-21 0 -21 23v607q0 23 21 23h7q21 0 21 -23v-607q0 -23 -21 -23h-7v0z" />
    <glyph glyph-name="J" unicode="J" horiz-adv-x="436" 
d="M185 -10q-39 0 -69 11t-50.5 26.5t-31 32.5t-10.5 28q0 8 4.5 14t10 10t10 5.5t5.5 0.5q15 -37 49 -61t82 -24q70 0 101.5 40t31.5 130v424q0 23 22 23h7q21 0 21 -23v-424q0 -109 -44.5 -161t-138.5 -52z" />
    <glyph glyph-name="K" unicode="K" horiz-adv-x="532" 
d="M100 -3q-21 0 -21 23v607q0 23 21 23h7q21 0 21 -23v-290l308 298q12 12 22.5 14t18 -1t11 -10t2.5 -14l-306 -292l315 -309q1 -8 -4 -15t-13 -10t-18.5 -1t-19.5 12l-316 316v-305q0 -23 -21 -23h-7v0z" />
    <glyph glyph-name="L" unicode="L" 
d="M108 0q-13 0 -21 8.5t-8 21.5v597q0 23 21 23h7q21 0 21 -23v-581h318q23 0 23 -21v-4q0 -21 -23 -21h-338v0z" />
    <glyph glyph-name="M" unicode="M" horiz-adv-x="735" 
d="M98 -3q-19 0 -19 23v598q0 14 9.5 23t25.5 9h12q19 0 27 -8.5t16 -28.5l199 -392l199 392q8 20 16 28.5t27 8.5h10q17 0 26.5 -9t9.5 -23v-598q0 -23 -21 -23h-6q-21 0 -21 23v573l-198 -387q-6 -14 -15.5 -22.5t-27.5 -8.5q-19 0 -28 8.5t-15 22.5l-198 387v-573
q0 -23 -20 -23h-8v0z" />
    <glyph glyph-name="N" unicode="N" horiz-adv-x="673" 
d="M98 -3q-19 0 -19 23v596q0 14 6.5 24t20.5 10h13q14 0 22 -7t17 -20l390 -546v550q0 23 20 23h7q20 0 20 -23v-597q0 -14 -7 -23.5t-19 -9.5h-4q-14 0 -20 4.5t-14 15.5l-405 568v-565q0 -23 -21 -23h-7v0z" />
    <glyph glyph-name="O" unicode="O" horiz-adv-x="735" 
d="M366 -10q-71 0 -129.5 24.5t-100.5 68.5t-65 105t-23 134t23.5 134.5t65.5 106t101 69.5t130 25t129.5 -24.5t100.5 -69t65 -105.5t23 -134t-23 -134t-65 -105.5t-101 -69.5t-131 -25zM368 33q60 0 109 21.5t84 60.5t54.5 92t19.5 116q0 62 -19.5 115.5t-55 92.5
t-84.5 61t-109 22t-109 -22t-84 -60.5t-54.5 -92t-19.5 -116.5t19.5 -116t55 -91.5t84.5 -60.5t109 -22z" />
    <glyph glyph-name="P" unicode="P" horiz-adv-x="546" 
d="M100 -3q-21 0 -21 23v597q0 13 8 21.5t21 8.5h166q115 0 176 -50.5t61 -143.5q0 -95 -60.5 -146t-181.5 -51h-141v-236q0 -10 -5 -16.5t-16 -6.5h-7v0zM273 300q94 0 140.5 39t46.5 112q0 74 -46.5 112.5t-139.5 38.5h-146v-302h145z" />
    <glyph glyph-name="Q" unicode="Q" horiz-adv-x="735" 
d="M366 -10q-71 0 -129.5 24.5t-100.5 68.5t-65 105t-23 134t23.5 134.5t65.5 106t101 69.5t130 25t129.5 -24.5t100.5 -69t65 -105.5t23 -134q0 -69 -22 -128.5t-62 -104.5l77 -77q1 -1 -0.5 -5t-5.5 -8t-9.5 -7t-13.5 -3q-12 0 -26 14l-55 56q-41 -34 -92 -52.5
t-111 -18.5zM368 33q51 0 93.5 15t75.5 43l-146 148q-9 9 -9 18.5t6 15.5q17 17 35 -1l146 -149q32 38 49 89t17 111q0 62 -19.5 115.5t-55 92.5t-84.5 61t-109 22t-109 -22t-84 -60.5t-54.5 -92t-19.5 -116.5t19.5 -116t55 -91.5t84.5 -60.5t109 -22z" />
    <glyph glyph-name="R" unicode="R" horiz-adv-x="560" 
d="M288 320q90 0 133 38t43 103q0 69 -44.5 105t-134.5 36h-157v-282h160zM513 21q2 -3 -6.5 -13.5t-23.5 -10.5q-16 0 -31 18l-243 262h-81v-257q0 -10 -5.5 -16.5t-16.5 -6.5h-6q-21 0 -21 23v597q0 13 8 21.5t21 8.5h175q115 0 173.5 -46.5t58.5 -137.5q0 -90 -57.5 -138
t-163.5 -48h-21z" />
    <glyph glyph-name="S" unicode="S" horiz-adv-x="535" 
d="M273 -10q-72 0 -122.5 20.5t-78.5 49.5q-17 17 -24.5 32.5t-7.5 26.5q0 8 4.5 14t9.5 10t10 5.5t6 0.5q10 -22 27 -42.5t41.5 -37t58 -26.5t75.5 -10q80 0 125.5 35.5t45.5 96.5q0 35 -15.5 58.5t-41 39t-59 25t-70.5 18.5t-73 20.5t-64.5 31t-45.5 49.5t-17 76
q0 38 16 70t44.5 55t66.5 36t83 13q66 0 111.5 -19t70.5 -43q28 -30 28 -52q0 -8 -4.5 -14.5t-9.5 -10t-10 -5.5t-6 -1q-9 20 -24.5 38.5t-38 32.5t-51.5 22.5t-65 8.5q-35 0 -65 -9t-51.5 -26t-33.5 -41t-12 -54q0 -33 13.5 -54.5t37 -36t55.5 -23.5t70 -18
q39 -9 76.5 -21.5t67.5 -33t48 -51.5t18 -78q0 -40 -15.5 -73t-44.5 -56t-69 -36t-90 -13z" />
    <glyph glyph-name="T" unicode="T" horiz-adv-x="569" 
d="M281 -3q-21 0 -21 23v582h-214q-24 0 -24 20v4q0 21 24 21h477q23 0 23 -21v-4q0 -20 -23 -20h-214v-582q0 -23 -21 -23h-7v0z" />
    <glyph glyph-name="U" unicode="U" horiz-adv-x="631" 
d="M314 -10q-121 0 -183 66t-62 196v375q0 23 21 23h7q21 0 21 -23v-372q0 -220 198 -220q197 0 197 221v371q0 23 21 23h9q19 0 19 -23v-373q0 -131 -63 -197.5t-185 -66.5z" />
    <glyph glyph-name="V" unicode="V" horiz-adv-x="593" 
d="M297 -4q-17 0 -23.5 4.5t-10.5 13.5l-247 621q-1 3 6 8t17 6.5t20 -3t16 -20.5l222 -574l223 574q6 16 16 20.5t19.5 3t16 -6.5t5.5 -8l-247 -621q-4 -9 -10.5 -13.5t-22.5 -4.5z" />
    <glyph glyph-name="W" unicode="W" horiz-adv-x="882" 
d="M245 -5q-20 0 -28.5 4.5t-10.5 16.5l-155 623q0 3 7.5 7t17.5 4t20 -6.5t14 -26.5l135 -572l157 473q5 14 13 21.5t28 7.5t27 -7.5t12 -21.5l156 -472l138 571q4 20 13.5 26.5t18.5 6.5t16 -4t7 -7l-155 -623q-2 -12 -10.5 -16.5t-28.5 -4.5q-19 0 -26 5.5t-11 16.5
l-157 480l-163 -480q-4 -11 -10 -16.5t-25 -5.5z" />
    <glyph glyph-name="X" unicode="X" horiz-adv-x="568" 
d="M48 -3q-13 0 -20 10t-5 13l232 309l-223 298q-2 3 5 13t21 10q8 0 15.5 -3.5t12.5 -11.5l199 -272l9 12l23.5 31.5l33 44l37.5 49.5l102 136q12 16 25 16t20 -10t5 -13l-227 -301l230 -305q2 -4 -5 -14t-21 -10q-17 0 -28 15l-206 281l-210 -282q-12 -16 -25 -16z" />
    <glyph glyph-name="Y" unicode="Y" horiz-adv-x="538" 
d="M265 -3q-21 0 -21 23v257l-236 352q-1 5 4.5 10.5t14.5 8.5t19 0.5t18 -15.5l205 -311l205 310q9 14 19 16.5t18.5 -0.5t13.5 -9.5t4 -9.5l-235 -352v-257q0 -23 -22 -23h-7v0z" />
    <glyph glyph-name="Z" unicode="Z" horiz-adv-x="585" 
d="M87 0q-22 0 -31.5 8t-9.5 20v7q0 11 5.5 21.5t24.5 33.5l397 512h-399q-23 0 -23 20v4q0 21 23 21h414q22 0 31 -8t9 -19v-7q0 -11 -7.5 -24t-21.5 -30l-399 -514h418q24 0 24 -20v-4q0 -21 -24 -21h-431v0z" />
    <glyph glyph-name="bracketleft" unicode="[" horiz-adv-x="322" 
d="M114 -193q-14 0 -22 8.5t-8 21.5v780q0 13 8 21.5t22 8.5h158q14 0 18.5 -5t4.5 -14v-5q0 -10 -4.5 -14.5t-18.5 -4.5h-142v-753h142q14 0 18.5 -5t4.5 -15v-5q0 -9 -4.5 -14t-18.5 -5h-158v0z" />
    <glyph glyph-name="backslash" unicode="\" horiz-adv-x="317" 
d="M274 -193q-8 0 -10 2l-240 785q-5 18 -5 29t4 17t11 8t15 2q3 0 6 -0.5t3 -1.5l240 -785q11 -36 1.5 -46t-25.5 -10z" />
    <glyph glyph-name="bracketright" unicode="]" horiz-adv-x="322" 
d="M50 -193q-23 0 -23 19v5q0 20 23 20h143v753h-143q-23 0 -23 19v5q0 19 23 19h158q14 0 22 -8.5t8 -21.5v-780q0 -13 -8 -21.5t-22 -8.5h-158v0z" />
    <glyph glyph-name="asciicircum" unicode="^" 
d="M146 450q-16 0 -16 17q0 12 13 30t38 47q29 32 48 48.5t21 16.5t21.5 -16.5t45.5 -46.5q25 -29 38.5 -48t13.5 -31q0 -17 -15 -17q-10 0 -23 13t-42 50l-20 26l-20 27l-19.5 -25.5l-20.5 -28.5q-25 -34 -39 -48t-24 -14z" />
    <glyph glyph-name="underscore" unicode="_" horiz-adv-x="452" 
d="M36 -45q-23 0 -23 20v4q0 21 23 21h380q23 0 23 -21v-4q0 -20 -23 -20h-380v0z" />
    <glyph glyph-name="grave" unicode="`" 
d="M319 546q-1 -1 -13.5 2t-32 11.5t-44.5 22.5t-52 33q-23 17 -30.5 26.5t-7.5 19.5q0 9 6.5 14.5t14.5 5.5t18 -4.5t27 -17.5q26 -19 47.5 -38.5t36.5 -35.5t23 -26.5t7 -12.5z" />
    <glyph glyph-name="a" unicode="a" horiz-adv-x="501" 
d="M201 -9q-76 0 -120 34.5t-44 94.5q0 80 82 116t260 39h10v24q0 67 -38 103.5t-107 36.5q-62 0 -101.5 -26t-59.5 -64l-4.5 1t-9.5 4t-9 8.5t-4 14.5q0 8 7 21t20 25q23 23 63 41.5t101 18.5q89 0 139 -48.5t50 -134.5v-298q0 -1 -5 -3t-12 -2q-12 0 -21 9.5t-9 38.5v49
q-23 -46 -72.5 -74.5t-115.5 -28.5zM205 30q39 0 72.5 12.5t58 34t39 50.5t14.5 63v47h-13q-77 -1 -132 -8.5t-90 -21.5t-51.5 -35.5t-16.5 -51.5q0 -42 32 -66t87 -24z" />
    <glyph glyph-name="b" unicode="b" horiz-adv-x="566" 
d="M301 -10q-36 0 -66 9t-53.5 24t-40 34t-25.5 39v-76q0 -23 -20 -23h-5q-22 0 -22 23v653q0 1 4.5 3t11.5 2q13 0 22.5 -9t9.5 -38v-255q29 48 75 77.5t112 29.5q47 0 88 -17.5t71.5 -50t48 -77.5t17.5 -100t-17 -100.5t-47.5 -78.5t-72 -51t-91.5 -18zM297 32q41 0 75 15
t58 42t37.5 65t13.5 84q0 44 -14 81t-38 64t-57.5 42.5t-72.5 15.5q-69 0 -114.5 -35.5t-68.5 -93.5v-109q0 -36 14 -67t38.5 -54t57.5 -36.5t71 -13.5z" />
    <glyph glyph-name="c" unicode="c" horiz-adv-x="512" 
d="M278 -10q-53 0 -97 19t-76 52t-50 78t-18 98t18 98t50 78t76 51.5t97 18.5q60 0 100 -18.5t64 -42.5q19 -20 27.5 -38t8.5 -29q0 -8 -4.5 -13t-10 -8t-10.5 -3.5t-6 0.5q-8 21 -22 41t-34 35.5t-48 24.5t-65 9q-42 0 -77.5 -15.5t-61 -43t-40 -64.5t-14.5 -81
q0 -43 14 -80.5t39.5 -65.5t61 -43.5t78.5 -15.5q37 0 65 9t48 24.5t34 35.5t22 41q1 1 6 0.5t10.5 -3.5t10 -8t4.5 -13q0 -11 -9 -29.5t-29 -38.5q-23 -24 -63 -42t-99 -18z" />
    <glyph glyph-name="d" unicode="d" horiz-adv-x="566" 
d="M262 -10q-48 0 -89 18t-71.5 50t-47.5 78t-17 101q0 54 17 99.5t47.5 78t72.5 50.5t91 18q35 0 64 -8.5t52.5 -22.5t40.5 -32.5t27 -38.5v292q0 1 4.5 3t11.5 2q13 0 22.5 -9t9.5 -38v-611q0 -23 -22 -23h-5q-21 0 -21 23v76q-26 -48 -72 -77t-115 -29zM267 32
q38 0 71 13.5t58 36.5t39 54t14 66v111q-22 58 -67 93t-114 35q-40 0 -73.5 -15t-58 -42t-38 -64t-13.5 -82t13.5 -83t37.5 -65t57.5 -42.5t73.5 -15.5z" />
    <glyph glyph-name="e" unicode="e" horiz-adv-x="525" 
d="M440 271q-1 38 -14 69t-34.5 53.5t-52 35t-66.5 12.5q-37 0 -68.5 -12.5t-56 -35t-40.5 -54t-21 -68.5h353zM84 230q1 -43 15.5 -79.5t40.5 -63t61.5 -41t77.5 -14.5q37 0 64.5 8.5t48 22t34 30.5t22.5 35q1 1 5.5 0t9.5 -4.5t9 -9t4 -14.5q0 -8 -7 -21.5t-23 -29.5
q-22 -22 -64.5 -40.5t-102.5 -18.5q-54 0 -99 18.5t-76.5 51t-49 77.5t-17.5 98t18 98.5t49.5 78.5t74.5 52t94 19q49 0 89 -16.5t68.5 -47t44 -73t15.5 -94.5v-5q0 -11 -5 -14t-16 -3h-385v0z" />
    <glyph glyph-name="f" unicode="f" horiz-adv-x="311" 
d="M133 -3q-21 0 -21 23v410h-79q-14 0 -18.5 5t-4.5 14v5q0 9 4.5 14t18.5 5h79v51q0 81 34 122.5t97 41.5q29 0 48.5 -7.5t31.5 -18.5q11 -11 11 -25q0 -12 -6 -18t-8 -5q-11 14 -32.5 23t-44.5 9q-42 0 -63.5 -29.5t-21.5 -95.5v-48h105q14 0 19 -5t5 -14v-5q0 -9 -5 -14
t-19 -5h-104v-410q0 -23 -21 -23h-5v0z" />
    <glyph glyph-name="g" unicode="g" horiz-adv-x="451" 
d="M220 -210q-220 0 -220 128q0 27 13 50t35 41t51.5 30t62.5 18q-16 8 -26 19.5t-10 30.5q0 15 7.5 27.5t19.5 20.5q-54 17 -86 59t-32 96q0 36 14 67.5t39.5 55t60 37t74.5 13.5q33 0 63.5 -10t54.5 -27l44 60q10 15 20.5 19t19.5 1.5t14.5 -9t5.5 -11.5l-77 -85
q20 -21 31.5 -48.5t11.5 -58.5q0 -36 -14.5 -67t-40 -54t-60 -36t-75.5 -13q-8 0 -16 0.5t-16 1.5q-10 -6 -13.5 -14t-3.5 -17q0 -13 9.5 -22t26.5 -15t42 -11.5l56 -12.5q27 -6 54 -16t48.5 -25t35 -36t13.5 -49q0 -66 -62.5 -102t-174.5 -36zM222 182q30 0 55.5 9.5t44 27
t29 41.5t10.5 52q0 29 -10 53t-28.5 41t-44 27t-56.5 10q-61 0 -99.5 -36.5t-38.5 -94.5q0 -28 10 -52t28.5 -41.5t44 -27t55.5 -9.5zM221 -171q88 0 138 24.5t50 72.5q0 19 -10 33t-26.5 24.5t-37.5 17.5t-44 12q-17 5 -33.5 8t-33.5 8q-35 -3 -67 -11.5t-56.5 -23
t-39 -33.5t-14.5 -43q0 -43 44.5 -66t129.5 -23z" />
    <glyph glyph-name="h" unicode="h" horiz-adv-x="541" 
d="M90 -3q-9 0 -15 4.5t-6 18.5v653q0 1 4.5 3t11.5 2q13 0 22.5 -9t9.5 -38v-251q21 46 65 74.5t103 28.5q48 0 83.5 -15t59.5 -43t36 -66.5t12 -86.5v-252q0 -14 -6 -18.5t-15 -4.5h-6q-9 0 -15 4.5t-6 18.5v249q0 79 -37.5 124t-108.5 45q-36 0 -66 -12t-52 -33.5
t-34.5 -52t-12.5 -68.5v-252q0 -14 -6 -18.5t-15 -4.5h-6v0z" />
    <glyph glyph-name="i" unicode="i" horiz-adv-x="195" 
d="M97 601q-32 0 -32 33t34 33q32 0 32 -33t-34 -33zM95 -3q-10 0 -15.5 4.5t-5.5 18.5v433q0 14 5.5 18.5t15.5 4.5h5q10 0 16 -4.5t6 -18.5v-433q0 -14 -6 -18.5t-16 -4.5h-5v0z" />
    <glyph glyph-name="j" unicode="j" horiz-adv-x="195" 
d="M97 601q-32 0 -32 33t34 33q32 0 32 -33t-34 -33zM0 -190q-26 0 -44.5 6.5t-28.5 16.5t-10 20q0 11 6.5 19.5t7.5 7.5q11 -11 28.5 -19.5t40.5 -8.5q74 0 74 98v503q0 14 5.5 18.5t15.5 4.5h5q10 0 16 -4.5t6 -18.5v-506q0 -66 -31 -101.5t-91 -35.5z" />
    <glyph glyph-name="k" unicode="k" horiz-adv-x="429" 
d="M90 -3q-9 0 -15 4.5t-6 18.5v653q0 1 4.5 3t11.5 2q13 0 22.5 -9t9.5 -38v-376l216 202q15 15 26 17.5t18 -1t10 -10t2 -10.5l-219 -202l248 -229q0 -4 -3 -11t-10 -11t-18 -1.5t-26 17.5l-244 228v-224q0 -14 -6 -18.5t-15 -4.5h-6v0z" />
    <glyph glyph-name="l" unicode="l" horiz-adv-x="195" 
d="M95 -3q-21 0 -21 23v653q0 1 4.5 3t11.5 2q13 0 22.5 -9t9.5 -38v-611q0 -23 -22 -23h-5v0z" />
    <glyph glyph-name="m" unicode="m" horiz-adv-x="856" 
d="M90 -3q-9 0 -15 4.5t-6 18.5v451q0 1 4.5 3t11.5 2q13 0 22 -9.5t9 -38.5v-41q23 44 65 70t93 26q63 0 104.5 -30t58.5 -81q22 50 66.5 80.5t105.5 30.5q88 0 135 -52.5t47 -151.5v-259q0 -14 -6 -18.5t-15 -4.5h-6q-9 0 -15 4.5t-6 18.5v256q0 78 -35 120t-102 42
q-48 0 -90.5 -28.5t-61.5 -81.5v-308q0 -14 -6 -18.5t-15 -4.5h-6q-9 0 -15 4.5t-6 18.5v267q0 71 -34 111t-103 40q-47 0 -89.5 -29t-62.5 -80v-309q0 -14 -6 -18.5t-15 -4.5h-6v0z" />
    <glyph glyph-name="n" unicode="n" horiz-adv-x="541" 
d="M90 -3q-9 0 -15 4.5t-6 18.5v451q0 1 4.5 3t11.5 2q13 0 22 -9.5t9 -38.5v-43q23 42 66.5 70t103.5 28q47 0 82.5 -15t59.5 -43t36 -66.5t12 -86.5v-252q0 -14 -6 -18.5t-15 -4.5h-6q-9 0 -15 4.5t-6 18.5v249q0 78 -37 123.5t-107 45.5q-60 0 -102.5 -30t-64.5 -80v-308
q0 -14 -6 -18.5t-15 -4.5h-6v0z" />
    <glyph glyph-name="o" unicode="o" horiz-adv-x="557" 
d="M279 -10q-53 0 -97.5 19t-76.5 52t-50 78t-18 98t18 98t50 78t76.5 51.5t97.5 18.5t97 -19t76 -52t50 -78.5t18 -98.5q0 -52 -18 -97t-50 -78t-76 -51.5t-97 -18.5zM279 32q42 0 77 15.5t61 42.5t40.5 64.5t14.5 80.5q0 44 -14.5 81.5t-40 65t-61 43.5t-77.5 16
t-77.5 -15.5t-61.5 -43t-40.5 -64.5t-14.5 -81q0 -43 14.5 -80.5t40.5 -65.5t61.5 -43.5t77.5 -15.5z" />
    <glyph glyph-name="p" unicode="p" horiz-adv-x="566" 
d="M91 -193q-22 0 -22 23v641q0 1 4.5 3t11.5 2q13 0 22 -9.5t9 -38.5v-52q29 48 75 77.5t113 29.5q47 0 88 -17.5t71.5 -50t48 -77.5t17.5 -100t-17 -100.5t-47.5 -78.5t-72 -51t-91.5 -18q-36 0 -65.5 9t-53 24t-40 34t-25.5 39v-266q0 -13 -6 -18t-15 -5h-5v0zM297 32
q41 0 75 15t58 42t37.5 65t13.5 84q0 44 -14 81t-38 64t-57.5 42.5t-72.5 15.5q-69 0 -114.5 -35.5t-68.5 -93.5v-109q0 -36 14 -67t38.5 -54t57.5 -36.5t71 -13.5z" />
    <glyph glyph-name="q" unicode="q" horiz-adv-x="566" 
d="M470 -193q-21 0 -21 23v265q-26 -47 -72.5 -76t-114.5 -29q-48 0 -89 18t-71.5 50t-47.5 78t-17 101q0 54 17 99.5t47.5 78t72.5 50.5t91 18q35 0 64.5 -8.5t52.5 -22.5t40 -33t27 -39v48q0 29 9.5 38.5t21.5 9.5q7 0 12 -2t5 -3v-641q0 -23 -22 -23h-5v0zM267 32
q38 0 71 13.5t58 37t39 54.5t14 66v108q-22 59 -67 94.5t-114 35.5q-40 0 -73.5 -15t-58 -42t-38 -64t-13.5 -82t13.5 -83t37.5 -65t57.5 -42.5t73.5 -15.5z" />
    <glyph glyph-name="r" unicode="r" horiz-adv-x="328" 
d="M91 -3q-22 0 -22 23v451q0 1 4.5 3t11.5 2q13 0 22 -9.5t9 -38.5v-60q15 60 48.5 87.5t81.5 27.5q29 0 48 -11t19 -29q0 -14 -6 -20t-8 -5q-10 8 -24.5 13.5t-32.5 5.5q-64 0 -94.5 -58t-30.5 -154v-205q0 -13 -6 -18t-15 -5h-5v0z" />
    <glyph glyph-name="s" unicode="s" horiz-adv-x="443" 
d="M222 -10q-63 0 -104.5 16.5t-63.5 38.5q-13 13 -18 22t-5 17t4 13t8.5 8t8.5 4t5 1q22 -34 62.5 -57t104.5 -23q65 0 100.5 26t35.5 66q0 24 -10.5 39.5t-30 25.5t-46.5 17t-60 14q-29 6 -59 13.5t-54 21.5t-39.5 36t-15.5 57q0 30 13 55.5t36 43.5t55.5 28t72.5 10
q56 0 94 -15.5t59 -36.5q18 -18 18 -35q0 -7 -4 -12.5t-8.5 -8.5t-8.5 -4t-5 0q-18 31 -56 51.5t-89 20.5q-62 0 -96.5 -25.5t-34.5 -64.5q0 -22 10 -37t28.5 -25t45 -17t58.5 -14q30 -6 61 -14t56 -22.5t41 -37t16 -57.5q0 -62 -49.5 -100.5t-135.5 -38.5z" />
    <glyph glyph-name="t" unicode="t" horiz-adv-x="332" 
d="M222 -10q-63 0 -93.5 36t-30.5 111v293h-58q-14 0 -18.5 5t-4.5 14v5q0 9 4.5 14t18.5 5h58v92q0 14 6 19t15 5h6q9 0 14.5 -5t5.5 -19v-92h137q14 0 19 -5t5 -14v-5q0 -9 -5 -14t-19 -5h-137v-288q0 -59 18.5 -85t60.5 -26q26 0 45 11t32 30q2 1 9 -4.5t7 -19.5
q0 -6 -3.5 -14t-12.5 -16q-11 -12 -30.5 -20t-48.5 -8z" />
    <glyph glyph-name="u" unicode="u" horiz-adv-x="541" 
d="M254 -10q-47 0 -82.5 15t-59 43t-35.5 66.5t-12 86.5v252q0 14 6 18.5t15 4.5h6q9 0 15 -4.5t6 -18.5v-249q0 -78 37 -123.5t107 -45.5q60 0 102.5 30t64.5 80v308q0 14 6 18.5t15 4.5h6q9 0 15 -4.5t6 -18.5v-451q0 -1 -5 -3t-12 -2q-12 0 -21 9.5t-9 38.5v43
q-24 -42 -67.5 -70t-103.5 -28z" />
    <glyph glyph-name="v" unicode="v" horiz-adv-x="461" 
d="M230 -4q-19 0 -24 4t-9 14l-182 448q0 3 6.5 8t15.5 6t19.5 -5.5t17.5 -26.5l157 -401l158 401q8 20 17.5 26.5t18.5 6t15 -6t6 -8.5l-181 -447q-4 -10 -10.5 -14.5t-24.5 -4.5z" />
    <glyph glyph-name="w" unicode="w" horiz-adv-x="664" 
d="M182 -4q-20 0 -26.5 4.5t-8.5 13.5l-118 449q0 2 7 7t16.5 6t19 -5.5t14.5 -29.5l97 -397l114 335q3 11 10.5 16t26.5 5q18 0 25.5 -5t11.5 -16l113 -335l96 397q5 23 14.5 29.5t18.5 5.5t16 -6t7 -7l-117 -449q-3 -9 -9.5 -13.5t-26.5 -4.5q-18 0 -23.5 4.5t-9.5 13.5
l-116 339l-119 -339q-3 -9 -9 -13.5t-24 -4.5z" />
    <glyph glyph-name="x" unicode="x" horiz-adv-x="455" 
d="M49 -3q-14 0 -20.5 9.5t-4.5 11.5l174 219l-171 218q-2 2 4 11.5t20 9.5q13 0 20.5 -6.5t15.5 -17.5l142 -186l140 185q11 14 19.5 19.5t16.5 5.5q14 0 20 -9.5t5 -11.5l-173 -218l171 -219q2 -2 -4 -11.5t-20 -9.5q-13 0 -20.5 6.5t-15.5 17.5l-143 187l-140 -186
q-9 -12 -17 -18.5t-19 -6.5z" />
    <glyph glyph-name="y" unicode="y" horiz-adv-x="458" 
d="M167 -193q-10 0 -18 5.5t-7 7.5l84 206q-13 0 -19 4t-11 15l-182 417q0 4 6.5 9t15.5 5.5t19 -6t18 -25.5l166 -391l147 388q8 21 18 28t19 6.5t15.5 -5.5t6.5 -8l-244 -624q-7 -20 -15.5 -26t-18.5 -6z" />
    <glyph glyph-name="z" unicode="z" horiz-adv-x="460" 
d="M61 0q-14 0 -19 6t-5 15v7q0 7 4 13.5t15 19.5l299 371h-292q-25 0 -25 18v5q0 18 25 18h331q14 0 19 -6t5 -15v-4q0 -5 -4.5 -12t-14.5 -20l-302 -375h304q25 0 25 -18v-5q0 -18 -25 -18h-340v0z" />
    <glyph glyph-name="braceleft" unicode="{" horiz-adv-x="393" 
d="M354 -196q-23 0 -56 16t-67 50q-38 38 -65.5 105.5t-31.5 162.5l-75 44q-9 5 -15.5 9t-10.5 9t-5.5 11.5t-1.5 16.5q0 20 7 28t26 18l75 44q4 94 31.5 162t65.5 106q34 33 67 49.5t56 16.5q19 0 19 -21q0 -5 -2.5 -11.5t-4.5 -7.5q-97 -27 -138.5 -106t-45.5 -213
l-114 -65l114 -65q4 -135 45.5 -214t138.5 -106q2 -1 4.5 -7.5t2.5 -11.5q0 -20 -19 -20z" />
    <glyph glyph-name="bar" unicode="|" horiz-adv-x="229" 
d="M112 -193q-10 0 -15.5 4.5t-5.5 18.5v797q0 14 5.5 18.5t15.5 4.5h5q10 0 16 -4.5t6 -18.5v-797q0 -14 -6 -18.5t-16 -4.5h-5v0z" />
    <glyph glyph-name="braceright" unicode="}" horiz-adv-x="393" 
d="M39 -196q-19 0 -19 20q0 5 2.5 11.5t4.5 7.5q96 27 138 106.5t46 213.5l114 65l-114 65q-4 134 -46 213t-138 106q-2 1 -4.5 7.5t-2.5 11.5q0 21 19 21q23 0 56 -16.5t66 -49.5q38 -38 66 -106t32 -162l75 -44q19 -10 26 -18t7 -28t-7 -28t-26 -18l-75 -44
q-4 -95 -32 -162.5t-66 -105.5q-33 -34 -66 -50t-56 -16z" />
    <glyph glyph-name="asciitilde" unicode="~" horiz-adv-x="499" 
d="M310 166q-25 0 -43 12.5t-34 29.5q-15 15 -25 22t-21 7q-15 0 -22 -11t-12 -31q-3 -12 -7.5 -17.5t-13.5 -5.5q-5 0 -9 2t-9 5q3 45 21 71.5t53 26.5q26 0 44 -12t33 -29q15 -15 25 -22t22 -7q14 0 21.5 11t12.5 31q3 11 7.5 17t13.5 6q8 0 17 -7q-2 -45 -20.5 -72
t-53.5 -27z" />
    <glyph glyph-name="Adieresis" unicode="&#xc4;" horiz-adv-x="597" 
d="M261 633q4 9 12 13.5t25 4.5q18 0 26 -4.5t12 -13.5l245 -621q1 -3 -5.5 -8t-16.5 -6.5t-20 3t-16 20.5l-81 203h-289l-81 -203q-6 -16 -16 -20.5t-19.5 -3t-16 6.5t-5.5 8zM426 268l-128 327l-129 -327h257zM379 717q-38 0 -38 38q0 37 37 37q17 0 27.5 -9.5t10.5 -27.5
t-10 -28t-27 -10zM220 717q-17 0 -27.5 10t-10.5 28t10 27.5t27 9.5q38 0 38 -37q0 -18 -10 -28t-27 -10z" />
    <glyph glyph-name="Aring" unicode="&#xc5;" horiz-adv-x="597" 
d="M257 624q-30 11 -48 37t-18 61q0 46 30 77.5t78 31.5t77.5 -31t29.5 -78q0 -35 -18.5 -61t-49.5 -37l243 -612q1 -3 -5.5 -8t-16.5 -6.5t-20 3t-16 20.5l-81 203h-289l-81 -203q-6 -16 -16 -20.5t-19.5 -3t-16 6.5t-5.5 8zM298 647q31 0 51 21.5t20 53.5t-20 54t-51 22
t-51 -22t-20 -54t20 -53.5t51 -21.5zM426 268l-128 329l-129 -329h257z" />
    <glyph glyph-name="Ccedilla" unicode="&#xc7;" horiz-adv-x="657" 
d="M368 -10q-72 0 -131 24.5t-101 68.5t-65 105t-23 134t23.5 134.5t66 106t101.5 69.5t130 25q76 0 127 -23.5t80 -52.5q17 -17 25.5 -34t8.5 -27t-4 -16t-9.5 -9.5t-10 -4.5t-5.5 0q-26 54 -82.5 89t-131.5 35q-59 0 -108 -21.5t-84.5 -60.5t-55 -92.5t-19.5 -116.5
t19.5 -116t55 -91.5t85.5 -60.5t110 -22q45 0 81 11.5t63.5 31t46 44.5t27.5 52q1 1 6 0t11 -4t11 -9.5t5 -15.5q0 -11 -10.5 -33t-33.5 -44q-29 -29 -82 -52.5t-127 -23.5zM293 -213q-2 -3 -7.5 -3.5t-10 1t-7.5 5t0 9.5l62 127q5 12 10.5 19t19.5 7h4q10 0 17.5 -5.5
t7.5 -16.5v-3q0 -6 -5.5 -13l-13.5 -18l-77 -109v0z" />
    <glyph glyph-name="Eacute" unicode="&#xc9;" horiz-adv-x="564" 
d="M108 0q-13 0 -21 8.5t-8 21.5v587q0 13 8 21.5t21 8.5h388q23 0 23 -20v-5q0 -20 -23 -20h-368v-248h285q23 0 23 -20v-3q0 -21 -23 -21h-285v-265h377q23 0 23 -19v-5q0 -21 -23 -21h-397v0zM231 721q-1 2 7 12.5t23 26.5t36.5 35.5t47.5 38.5q17 13 27 17.5t18 4.5
q9 0 15.5 -5.5t6.5 -14.5q0 -10 -8 -19.5t-31 -26.5q-27 -19 -52 -33t-44.5 -22.5t-31.5 -11.5t-14 -2z" />
    <glyph glyph-name="Ntilde" unicode="&#xd1;" horiz-adv-x="673" 
d="M98 -3q-19 0 -19 23v596q0 14 6.5 24t20.5 10h13q14 0 22 -7t17 -20l390 -546v550q0 23 20 23h7q20 0 20 -23v-597q0 -14 -7 -23.5t-19 -9.5h-4q-14 0 -20 4.5t-14 15.5l-405 568v-565q0 -23 -21 -23h-7v0zM402 713q-25 0 -43 12.5t-34 29.5q-15 15 -25 22t-21 7
q-15 0 -22 -11t-12 -31q-3 -12 -7.5 -17.5t-13.5 -5.5q-5 0 -9 2t-9 5q3 45 21 71.5t53 26.5q26 0 44 -12t33 -29q15 -15 25 -22t22 -7q14 0 21.5 11t12.5 31q3 11 7.5 17t13.5 6q8 0 17 -7q-2 -45 -20.5 -72t-53.5 -27z" />
    <glyph glyph-name="Odieresis" unicode="&#xd6;" horiz-adv-x="735" 
d="M366 -10q-71 0 -129.5 24.5t-100.5 68.5t-65 105t-23 134t23.5 134.5t65.5 106t101 69.5t130 25t129.5 -24.5t100.5 -69t65 -105.5t23 -134t-23 -134t-65 -105.5t-101 -69.5t-131 -25zM368 33q60 0 109 21.5t84 60.5t54.5 92t19.5 116q0 62 -19.5 115.5t-55 92.5
t-84.5 61t-109 22t-109 -22t-84 -60.5t-54.5 -92t-19.5 -116.5t19.5 -116t55 -91.5t84.5 -60.5t109 -22zM445 720q-38 0 -38 38q0 37 37 37q17 0 27.5 -9.5t10.5 -27.5t-10 -28t-27 -10zM286 720q-17 0 -27.5 10t-10.5 28t10 27.5t27 9.5q38 0 38 -37q0 -18 -10 -28t-27 -10
z" />
    <glyph glyph-name="Udieresis" unicode="&#xdc;" horiz-adv-x="631" 
d="M314 -10q-121 0 -183 66t-62 196v375q0 23 21 23h7q21 0 21 -23v-372q0 -220 198 -220q197 0 197 221v371q0 23 21 23h9q19 0 19 -23v-373q0 -131 -63 -197.5t-185 -66.5zM393 717q-38 0 -38 38q0 37 37 37q17 0 27.5 -9.5t10.5 -27.5t-10 -28t-27 -10zM234 717
q-17 0 -27.5 10t-10.5 28t10 27.5t27 9.5q38 0 38 -37q0 -18 -10 -28t-27 -10z" />
    <glyph glyph-name="aacute" unicode="&#xe1;" horiz-adv-x="501" 
d="M201 -9q-76 0 -120 34.5t-44 94.5q0 80 82 116t260 39h10v24q0 67 -38 103.5t-107 36.5q-62 0 -101.5 -26t-59.5 -64l-4.5 1t-9.5 4t-9 8.5t-4 14.5q0 8 7 21t20 25q23 23 63 41.5t101 18.5q89 0 139 -48.5t50 -134.5v-298q0 -1 -5 -3t-12 -2q-12 0 -21 9.5t-9 38.5v49
q-23 -46 -72.5 -74.5t-115.5 -28.5zM205 30q39 0 72.5 12.5t58 34t39 50.5t14.5 63v47h-13q-77 -1 -132 -8.5t-90 -21.5t-51.5 -35.5t-16.5 -51.5q0 -42 32 -66t87 -24zM182 546q-1 2 7 12.5t23 26.5t36.5 35.5t47.5 38.5q17 13 27 17.5t18 4.5q9 0 15.5 -5.5t6.5 -14.5
q0 -10 -8 -19.5t-31 -26.5q-27 -19 -52 -33t-44.5 -22.5t-31.5 -11.5t-14 -2z" />
    <glyph glyph-name="agrave" unicode="&#xe0;" horiz-adv-x="501" 
d="M201 -9q-76 0 -120 34.5t-44 94.5q0 80 82 116t260 39h10v24q0 67 -38 103.5t-107 36.5q-62 0 -101.5 -26t-59.5 -64l-4.5 1t-9.5 4t-9 8.5t-4 14.5q0 8 7 21t20 25q23 23 63 41.5t101 18.5q89 0 139 -48.5t50 -134.5v-298q0 -1 -5 -3t-12 -2q-12 0 -21 9.5t-9 38.5v49
q-23 -46 -72.5 -74.5t-115.5 -28.5zM205 30q39 0 72.5 12.5t58 34t39 50.5t14.5 63v47h-13q-77 -1 -132 -8.5t-90 -21.5t-51.5 -35.5t-16.5 -51.5q0 -42 32 -66t87 -24zM316 546q-1 -1 -13.5 2t-32 11.5t-44.5 22.5t-52 33q-23 17 -30.5 26.5t-7.5 19.5q0 9 6.5 14.5
t14.5 5.5t18 -4.5t27 -17.5q26 -19 47.5 -38.5t36.5 -35.5t23 -26.5t7 -12.5z" />
    <glyph glyph-name="acircumflex" unicode="&#xe2;" horiz-adv-x="501" 
d="M201 -9q-76 0 -120 34.5t-44 94.5q0 80 82 116t260 39h10v24q0 67 -38 103.5t-107 36.5q-62 0 -101.5 -26t-59.5 -64l-4.5 1t-9.5 4t-9 8.5t-4 14.5q0 8 7 21t20 25q23 23 63 41.5t101 18.5q89 0 139 -48.5t50 -134.5v-298q0 -1 -5 -3t-12 -2q-12 0 -21 9.5t-9 38.5v49
q-23 -46 -72.5 -74.5t-115.5 -28.5zM205 30q39 0 72.5 12.5t58 34t39 50.5t14.5 63v47h-13q-77 -1 -132 -8.5t-90 -21.5t-51.5 -35.5t-16.5 -51.5q0 -42 32 -66t87 -24zM144 544q-16 0 -16 17q0 12 13 30t38 47q29 32 48 48.5t21 16.5t21.5 -16.5t45.5 -46.5
q25 -29 38.5 -48t13.5 -31q0 -17 -15 -17q-10 0 -23 13t-42 50l-20 26l-20 27l-19.5 -25.5l-20.5 -28.5q-25 -34 -39 -48t-24 -14z" />
    <glyph glyph-name="adieresis" unicode="&#xe4;" horiz-adv-x="501" 
d="M201 -9q-76 0 -120 34.5t-44 94.5q0 80 82 116t260 39h10v24q0 67 -38 103.5t-107 36.5q-62 0 -101.5 -26t-59.5 -64l-4.5 1t-9.5 4t-9 8.5t-4 14.5q0 8 7 21t20 25q23 23 63 41.5t101 18.5q89 0 139 -48.5t50 -134.5v-298q0 -1 -5 -3t-12 -2q-12 0 -21 9.5t-9 38.5v49
q-23 -46 -72.5 -74.5t-115.5 -28.5zM205 30q39 0 72.5 12.5t58 34t39 50.5t14.5 63v47h-13q-77 -1 -132 -8.5t-90 -21.5t-51.5 -35.5t-16.5 -51.5q0 -42 32 -66t87 -24zM329 545q-38 0 -38 38q0 37 37 37q17 0 27.5 -9.5t10.5 -27.5t-10 -28t-27 -10zM170 545
q-17 0 -27.5 10t-10.5 28t10 27.5t27 9.5q38 0 38 -37q0 -18 -10 -28t-27 -10z" />
    <glyph glyph-name="atilde" unicode="&#xe3;" horiz-adv-x="501" 
d="M201 -9q-76 0 -120 34.5t-44 94.5q0 80 82 116t260 39h10v24q0 67 -38 103.5t-107 36.5q-62 0 -101.5 -26t-59.5 -64l-4.5 1t-9.5 4t-9 8.5t-4 14.5q0 8 7 21t20 25q23 23 63 41.5t101 18.5q89 0 139 -48.5t50 -134.5v-298q0 -1 -5 -3t-12 -2q-12 0 -21 9.5t-9 38.5v49
q-23 -46 -72.5 -74.5t-115.5 -28.5zM205 30q39 0 72.5 12.5t58 34t39 50.5t14.5 63v47h-13q-77 -1 -132 -8.5t-90 -21.5t-51.5 -35.5t-16.5 -51.5q0 -42 32 -66t87 -24zM308 543q-25 0 -43 12.5t-34 29.5q-15 15 -25 22t-21 7q-15 0 -22 -11t-12 -31q-3 -12 -7.5 -17.5
t-13.5 -5.5q-5 0 -9 2t-9 5q3 45 21 71.5t53 26.5q26 0 44 -12t33 -29q15 -15 25 -22t22 -7q14 0 21.5 11t12.5 31q3 11 7.5 17t13.5 6q8 0 17 -7q-2 -45 -20.5 -72t-53.5 -27z" />
    <glyph glyph-name="aring" unicode="&#xe5;" horiz-adv-x="501" 
d="M201 -9q-76 0 -120 34.5t-44 94.5q0 80 82 116t260 39h10v24q0 67 -38 103.5t-107 36.5q-62 0 -101.5 -26t-59.5 -64l-4.5 1t-9.5 4t-9 8.5t-4 14.5q0 8 7 21t20 25q23 23 63 41.5t101 18.5q89 0 139 -48.5t50 -134.5v-298q0 -1 -5 -3t-12 -2q-12 0 -21 9.5t-9 38.5v49
q-23 -46 -72.5 -74.5t-115.5 -28.5zM205 30q39 0 72.5 12.5t58 34t39 50.5t14.5 63v47h-13q-77 -1 -132 -8.5t-90 -21.5t-51.5 -35.5t-16.5 -51.5q0 -42 32 -66t87 -24zM249 543q-48 0 -77.5 31t-29.5 78t30.5 78t77.5 31q48 0 77.5 -31t29.5 -78q0 -46 -30.5 -77.5
t-77.5 -31.5zM249 577q31 0 51 21.5t20 53.5t-20 54t-51 22t-51 -22t-20 -54t20 -53.5t51 -21.5z" />
    <glyph glyph-name="ccedilla" unicode="&#xe7;" horiz-adv-x="512" 
d="M295 -10q-53 0 -97 19t-76 52t-50 78t-18 98t18 98t50 78t76 51.5t97 18.5q60 0 100 -18.5t64 -42.5q19 -20 27.5 -38t8.5 -29q0 -8 -4.5 -13t-10 -8t-10.5 -3.5t-6 0.5q-8 21 -22 41t-34 35.5t-48 24.5t-65 9q-42 0 -77.5 -15.5t-61 -43t-40 -64.5t-14.5 -81
q0 -43 14 -80.5t39.5 -65.5t61 -43.5t78.5 -15.5q37 0 65 9t48 24.5t34 35.5t22 41q1 1 6 0.5t10.5 -3.5t10 -8t4.5 -13q0 -11 -9 -29.5t-29 -38.5q-23 -24 -63 -42t-99 -18zM198 -213q-2 -3 -7.5 -3.5t-10 1t-7.5 5t0 9.5l62 127q5 12 10.5 19t19.5 7h4q10 0 17.5 -5.5
t7.5 -16.5v-3q0 -6 -5.5 -13l-13.5 -18l-77 -109v0z" />
    <glyph glyph-name="eacute" unicode="&#xe9;" horiz-adv-x="525" 
d="M440 271q-1 38 -14 69t-34.5 53.5t-52 35t-66.5 12.5q-37 0 -68.5 -12.5t-56 -35t-40.5 -54t-21 -68.5h353zM84 230q1 -43 15.5 -79.5t40.5 -63t61.5 -41t77.5 -14.5q37 0 64.5 8.5t48 22t34 30.5t22.5 35q1 1 5.5 0t9.5 -4.5t9 -9t4 -14.5q0 -8 -7 -21.5t-23 -29.5
q-22 -22 -64.5 -40.5t-102.5 -18.5q-54 0 -99 18.5t-76.5 51t-49 77.5t-17.5 98t18 98.5t49.5 78.5t74.5 52t94 19q49 0 89 -16.5t68.5 -47t44 -73t15.5 -94.5v-5q0 -11 -5 -14t-16 -3h-385v0zM213 546q-1 2 7 12.5t23 26.5t36.5 35.5t47.5 38.5q17 13 27 17.5t18 4.5
q9 0 15.5 -5.5t6.5 -14.5q0 -10 -8 -19.5t-31 -26.5q-27 -19 -52 -33t-44.5 -22.5t-31.5 -11.5t-14 -2z" />
    <glyph glyph-name="egrave" unicode="&#xe8;" horiz-adv-x="525" 
d="M440 271q-1 38 -14 69t-34.5 53.5t-52 35t-66.5 12.5q-37 0 -68.5 -12.5t-56 -35t-40.5 -54t-21 -68.5h353zM84 230q1 -43 15.5 -79.5t40.5 -63t61.5 -41t77.5 -14.5q37 0 64.5 8.5t48 22t34 30.5t22.5 35q1 1 5.5 0t9.5 -4.5t9 -9t4 -14.5q0 -8 -7 -21.5t-23 -29.5
q-22 -22 -64.5 -40.5t-102.5 -18.5q-54 0 -99 18.5t-76.5 51t-49 77.5t-17.5 98t18 98.5t49.5 78.5t74.5 52t94 19q49 0 89 -16.5t68.5 -47t44 -73t15.5 -94.5v-5q0 -11 -5 -14t-16 -3h-385v0zM322 546q-1 -1 -13.5 2t-32 11.5t-44.5 22.5t-52 33q-23 17 -30.5 26.5
t-7.5 19.5q0 9 6.5 14.5t14.5 5.5t18 -4.5t27 -17.5q26 -19 47.5 -38.5t36.5 -35.5t23 -26.5t7 -12.5z" />
    <glyph glyph-name="ecircumflex" unicode="&#xea;" horiz-adv-x="525" 
d="M440 271q-1 38 -14 69t-34.5 53.5t-52 35t-66.5 12.5q-37 0 -68.5 -12.5t-56 -35t-40.5 -54t-21 -68.5h353zM84 230q1 -43 15.5 -79.5t40.5 -63t61.5 -41t77.5 -14.5q37 0 64.5 8.5t48 22t34 30.5t22.5 35q1 1 5.5 0t9.5 -4.5t9 -9t4 -14.5q0 -8 -7 -21.5t-23 -29.5
q-22 -22 -64.5 -40.5t-102.5 -18.5q-54 0 -99 18.5t-76.5 51t-49 77.5t-17.5 98t18 98.5t49.5 78.5t74.5 52t94 19q49 0 89 -16.5t68.5 -47t44 -73t15.5 -94.5v-5q0 -11 -5 -14t-16 -3h-385v0zM166 544q-16 0 -16 17q0 12 13 30t38 47q29 32 48 48.5t21 16.5t21.5 -16.5
t45.5 -46.5q25 -29 38.5 -48t13.5 -31q0 -17 -15 -17q-10 0 -23 13t-42 50l-20 26l-20 27l-19.5 -25.5l-20.5 -28.5q-25 -34 -39 -48t-24 -14z" />
    <glyph glyph-name="edieresis" unicode="&#xeb;" horiz-adv-x="525" 
d="M440 271q-1 38 -14 69t-34.5 53.5t-52 35t-66.5 12.5q-37 0 -68.5 -12.5t-56 -35t-40.5 -54t-21 -68.5h353zM84 230q1 -43 15.5 -79.5t40.5 -63t61.5 -41t77.5 -14.5q37 0 64.5 8.5t48 22t34 30.5t22.5 35q1 1 5.5 0t9.5 -4.5t9 -9t4 -14.5q0 -8 -7 -21.5t-23 -29.5
q-22 -22 -64.5 -40.5t-102.5 -18.5q-54 0 -99 18.5t-76.5 51t-49 77.5t-17.5 98t18 98.5t49.5 78.5t74.5 52t94 19q49 0 89 -16.5t68.5 -47t44 -73t15.5 -94.5v-5q0 -11 -5 -14t-16 -3h-385v0zM350 545q-38 0 -38 38q0 37 37 37q17 0 27.5 -9.5t10.5 -27.5t-10 -28t-27 -10z
M191 545q-17 0 -27.5 10t-10.5 28t10 27.5t27 9.5q38 0 38 -37q0 -18 -10 -28t-27 -10z" />
    <glyph glyph-name="iacute" unicode="&#xed;" horiz-adv-x="195" 
d="M95 -3q-10 0 -15.5 4.5t-5.5 18.5v433q0 14 5.5 18.5t15.5 4.5h5q10 0 16 -4.5t6 -18.5v-433q0 -14 -6 -18.5t-16 -4.5h-5v0zM53 546q-1 2 7 12.5t23 26.5t36.5 35.5t47.5 38.5q17 13 27 17.5t18 4.5q9 0 15.5 -5.5t6.5 -14.5q0 -10 -8 -19.5t-31 -26.5q-27 -19 -52 -33
t-44.5 -22.5t-31.5 -11.5t-14 -2z" />
    <glyph glyph-name="igrave" unicode="&#xec;" horiz-adv-x="195" 
d="M95 -3q-10 0 -15.5 4.5t-5.5 18.5v433q0 14 5.5 18.5t15.5 4.5h5q10 0 16 -4.5t6 -18.5v-433q0 -14 -6 -18.5t-16 -4.5h-5v0zM151 546q-1 -1 -13.5 2t-32 11.5t-44.5 22.5t-52 33q-23 17 -30.5 26.5t-7.5 19.5q0 9 6.5 14.5t14.5 5.5t18 -4.5t27 -17.5q26 -19 47.5 -38.5
t36.5 -35.5t23 -26.5t7 -12.5z" />
    <glyph glyph-name="icircumflex" unicode="&#xee;" horiz-adv-x="195" 
d="M95 -3q-10 0 -15.5 4.5t-5.5 18.5v433q0 14 5.5 18.5t15.5 4.5h5q10 0 16 -4.5t6 -18.5v-433q0 -14 -6 -18.5t-16 -4.5h-5v0zM-2 542q-16 0 -16 17q0 12 13 30t38 47q29 32 48 48.5t21 16.5t21.5 -16.5t45.5 -46.5q25 -29 38.5 -48t13.5 -31q0 -17 -15 -17q-10 0 -23 13
t-42 50l-20 26l-20 27l-19.5 -25.5l-20.5 -28.5q-25 -34 -39 -48t-24 -14z" />
    <glyph glyph-name="idieresis" unicode="&#xef;" horiz-adv-x="195" 
d="M95 -3q-10 0 -15.5 4.5t-5.5 18.5v433q0 14 5.5 18.5t15.5 4.5h5q10 0 16 -4.5t6 -18.5v-433q0 -14 -6 -18.5t-16 -4.5h-5v0zM182 545q-38 0 -38 38q0 37 37 37q17 0 27.5 -9.5t10.5 -27.5t-10 -28t-27 -10zM23 545q-17 0 -27.5 10t-10.5 28t10 27.5t27 9.5q38 0 38 -37
q0 -18 -10 -28t-27 -10z" />
    <glyph glyph-name="ntilde" unicode="&#xf1;" horiz-adv-x="541" 
d="M90 -3q-9 0 -15 4.5t-6 18.5v451q0 1 4.5 3t11.5 2q13 0 22 -9.5t9 -38.5v-43q23 42 66.5 70t103.5 28q47 0 82.5 -15t59.5 -43t36 -66.5t12 -86.5v-252q0 -14 -6 -18.5t-15 -4.5h-6q-9 0 -15 4.5t-6 18.5v249q0 78 -37 123.5t-107 45.5q-60 0 -102.5 -30t-64.5 -80v-308
q0 -14 -6 -18.5t-15 -4.5h-6v0zM328 543q-25 0 -43 12.5t-34 29.5q-15 15 -25 22t-21 7q-15 0 -22 -11t-12 -31q-3 -12 -7.5 -17.5t-13.5 -5.5q-5 0 -9 2t-9 5q3 45 21 71.5t53 26.5q26 0 44 -12t33 -29q15 -15 25 -22t22 -7q14 0 21.5 11t12.5 31q3 11 7.5 17t13.5 6
q8 0 17 -7q-2 -45 -20.5 -72t-53.5 -27z" />
    <glyph glyph-name="oacute" unicode="&#xf3;" horiz-adv-x="557" 
d="M279 -10q-53 0 -97.5 19t-76.5 52t-50 78t-18 98t18 98t50 78t76.5 51.5t97.5 18.5t97 -19t76 -52t50 -78.5t18 -98.5q0 -52 -18 -97t-50 -78t-76 -51.5t-97 -18.5zM279 32q42 0 77 15.5t61 42.5t40.5 64.5t14.5 80.5q0 44 -14.5 81.5t-40 65t-61 43.5t-77.5 16
t-77.5 -15.5t-61.5 -43t-40.5 -64.5t-14.5 -81q0 -43 14.5 -80.5t40.5 -65.5t61.5 -43.5t77.5 -15.5zM233 546q-1 2 7 12.5t23 26.5t36.5 35.5t47.5 38.5q17 13 27 17.5t18 4.5q9 0 15.5 -5.5t6.5 -14.5q0 -10 -8 -19.5t-31 -26.5q-27 -19 -52 -33t-44.5 -22.5t-31.5 -11.5
t-14 -2z" />
    <glyph glyph-name="ograve" unicode="&#xf2;" horiz-adv-x="557" 
d="M279 -10q-53 0 -97.5 19t-76.5 52t-50 78t-18 98t18 98t50 78t76.5 51.5t97.5 18.5t97 -19t76 -52t50 -78.5t18 -98.5q0 -52 -18 -97t-50 -78t-76 -51.5t-97 -18.5zM279 32q42 0 77 15.5t61 42.5t40.5 64.5t14.5 80.5q0 44 -14.5 81.5t-40 65t-61 43.5t-77.5 16
t-77.5 -15.5t-61.5 -43t-40.5 -64.5t-14.5 -81q0 -43 14.5 -80.5t40.5 -65.5t61.5 -43.5t77.5 -15.5zM326 546q-1 -1 -13.5 2t-32 11.5t-44.5 22.5t-52 33q-23 17 -30.5 26.5t-7.5 19.5q0 9 6.5 14.5t14.5 5.5t18 -4.5t27 -17.5q26 -19 47.5 -38.5t36.5 -35.5t23 -26.5
t7 -12.5z" />
    <glyph glyph-name="ocircumflex" unicode="&#xf4;" horiz-adv-x="557" 
d="M279 -10q-53 0 -97.5 19t-76.5 52t-50 78t-18 98t18 98t50 78t76.5 51.5t97.5 18.5t97 -19t76 -52t50 -78.5t18 -98.5q0 -52 -18 -97t-50 -78t-76 -51.5t-97 -18.5zM279 32q42 0 77 15.5t61 42.5t40.5 64.5t14.5 80.5q0 44 -14.5 81.5t-40 65t-61 43.5t-77.5 16
t-77.5 -15.5t-61.5 -43t-40.5 -64.5t-14.5 -81q0 -43 14.5 -80.5t40.5 -65.5t61.5 -43.5t77.5 -15.5zM175 544q-16 0 -16 17q0 12 13 30t38 47q29 32 48 48.5t21 16.5t21.5 -16.5t45.5 -46.5q25 -29 38.5 -48t13.5 -31q0 -17 -15 -17q-10 0 -23 13t-42 50l-20 26l-20 27
l-19.5 -25.5l-20.5 -28.5q-25 -34 -39 -48t-24 -14z" />
    <glyph glyph-name="odieresis" unicode="&#xf6;" horiz-adv-x="557" 
d="M279 -10q-53 0 -97.5 19t-76.5 52t-50 78t-18 98t18 98t50 78t76.5 51.5t97.5 18.5t97 -19t76 -52t50 -78.5t18 -98.5q0 -52 -18 -97t-50 -78t-76 -51.5t-97 -18.5zM279 32q42 0 77 15.5t61 42.5t40.5 64.5t14.5 80.5q0 44 -14.5 81.5t-40 65t-61 43.5t-77.5 16
t-77.5 -15.5t-61.5 -43t-40.5 -64.5t-14.5 -81q0 -43 14.5 -80.5t40.5 -65.5t61.5 -43.5t77.5 -15.5zM359 545q-38 0 -38 38q0 37 37 37q17 0 27.5 -9.5t10.5 -27.5t-10 -28t-27 -10zM200 545q-17 0 -27.5 10t-10.5 28t10 27.5t27 9.5q38 0 38 -37q0 -18 -10 -28t-27 -10z
" />
    <glyph glyph-name="otilde" unicode="&#xf5;" horiz-adv-x="557" 
d="M279 -10q-53 0 -97.5 19t-76.5 52t-50 78t-18 98t18 98t50 78t76.5 51.5t97.5 18.5t97 -19t76 -52t50 -78.5t18 -98.5q0 -52 -18 -97t-50 -78t-76 -51.5t-97 -18.5zM279 32q42 0 77 15.5t61 42.5t40.5 64.5t14.5 80.5q0 44 -14.5 81.5t-40 65t-61 43.5t-77.5 16
t-77.5 -15.5t-61.5 -43t-40.5 -64.5t-14.5 -81q0 -43 14.5 -80.5t40.5 -65.5t61.5 -43.5t77.5 -15.5zM340 543q-25 0 -43 12.5t-34 29.5q-15 15 -25 22t-21 7q-15 0 -22 -11t-12 -31q-3 -12 -7.5 -17.5t-13.5 -5.5q-5 0 -9 2t-9 5q3 45 21 71.5t53 26.5q26 0 44 -12t33 -29
q15 -15 25 -22t22 -7q14 0 21.5 11t12.5 31q3 11 7.5 17t13.5 6q8 0 17 -7q-2 -45 -20.5 -72t-53.5 -27z" />
    <glyph glyph-name="uacute" unicode="&#xfa;" horiz-adv-x="541" 
d="M254 -10q-47 0 -82.5 15t-59 43t-35.5 66.5t-12 86.5v252q0 14 6 18.5t15 4.5h6q9 0 15 -4.5t6 -18.5v-249q0 -78 37 -123.5t107 -45.5q60 0 102.5 30t64.5 80v308q0 14 6 18.5t15 4.5h6q9 0 15 -4.5t6 -18.5v-451q0 -1 -5 -3t-12 -2q-12 0 -21 9.5t-9 38.5v43
q-24 -42 -67.5 -70t-103.5 -28zM229 544q-1 2 7 12.5t23 26.5t36.5 35.5t47.5 38.5q17 13 27 17.5t18 4.5q9 0 15.5 -5.5t6.5 -14.5q0 -10 -8 -19.5t-31 -26.5q-27 -19 -52 -33t-44.5 -22.5t-31.5 -11.5t-14 -2z" />
    <glyph glyph-name="ugrave" unicode="&#xf9;" horiz-adv-x="541" 
d="M254 -10q-47 0 -82.5 15t-59 43t-35.5 66.5t-12 86.5v252q0 14 6 18.5t15 4.5h6q9 0 15 -4.5t6 -18.5v-249q0 -78 37 -123.5t107 -45.5q60 0 102.5 30t64.5 80v308q0 14 6 18.5t15 4.5h6q9 0 15 -4.5t6 -18.5v-451q0 -1 -5 -3t-12 -2q-12 0 -21 9.5t-9 38.5v43
q-24 -42 -67.5 -70t-103.5 -28zM321 544q-1 -1 -13.5 2t-32 11.5t-44.5 22.5t-52 33q-23 17 -30.5 26.5t-7.5 19.5q0 9 6.5 14.5t14.5 5.5t18 -4.5t27 -17.5q26 -19 47.5 -38.5t36.5 -35.5t23 -26.5t7 -12.5z" />
    <glyph glyph-name="ucircumflex" unicode="&#xfb;" horiz-adv-x="541" 
d="M254 -10q-47 0 -82.5 15t-59 43t-35.5 66.5t-12 86.5v252q0 14 6 18.5t15 4.5h6q9 0 15 -4.5t6 -18.5v-249q0 -78 37 -123.5t107 -45.5q60 0 102.5 30t64.5 80v308q0 14 6 18.5t15 4.5h6q9 0 15 -4.5t6 -18.5v-451q0 -1 -5 -3t-12 -2q-12 0 -21 9.5t-9 38.5v43
q-24 -42 -67.5 -70t-103.5 -28zM168 542q-16 0 -16 17q0 12 13 30t38 47q29 32 48 48.5t21 16.5t21.5 -16.5t45.5 -46.5q25 -29 38.5 -48t13.5 -31q0 -17 -15 -17q-10 0 -23 13t-42 50l-20 26l-20 27l-19.5 -25.5l-20.5 -28.5q-25 -34 -39 -48t-24 -14z" />
    <glyph glyph-name="udieresis" unicode="&#xfc;" horiz-adv-x="541" 
d="M254 -10q-47 0 -82.5 15t-59 43t-35.5 66.5t-12 86.5v252q0 14 6 18.5t15 4.5h6q9 0 15 -4.5t6 -18.5v-249q0 -78 37 -123.5t107 -45.5q60 0 102.5 30t64.5 80v308q0 14 6 18.5t15 4.5h6q9 0 15 -4.5t6 -18.5v-451q0 -1 -5 -3t-12 -2q-12 0 -21 9.5t-9 38.5v43
q-24 -42 -67.5 -70t-103.5 -28zM353 543q-38 0 -38 38q0 37 37 37q17 0 27.5 -9.5t10.5 -27.5t-10 -28t-27 -10zM194 543q-17 0 -27.5 10t-10.5 28t10 27.5t27 9.5q38 0 38 -37q0 -18 -10 -28t-27 -10z" />
    <glyph glyph-name="dagger" unicode="&#x2020;" horiz-adv-x="497" 
d="M246 -155q-12 0 -15.5 6.5t-3.5 17.5l-4 447q0 15 3 31.5t8 32.5l-174 -8q-20 -2 -27 3t-7 21t7 21.5t27 3.5l173 -9l-10 205q-2 20 3.5 27t22.5 7t22.5 -7t3.5 -27l-10 -205l172 9q20 2 27.5 -3.5t7.5 -21.5t-7.5 -21t-27.5 -3l-174 8q5 -16 8.5 -32.5t3.5 -31.5
l-4 -447q0 -11 -4 -17.5t-16 -6.5h-5v0z" />
    <glyph glyph-name="degree" unicode="&#xb0;" horiz-adv-x="382" 
d="M189 370q-30 0 -55.5 10.5t-43.5 29t-28.5 44.5t-10.5 56v8q0 30 11 56t29.5 44.5t44.5 29.5t56 11t55.5 -10.5t44 -29.5t29 -44.5t10.5 -55.5v-8q0 -30 -11 -56t-30 -44.5t-45 -29.5t-56 -11zM191 409q42 0 70.5 29t28.5 72v8q0 21 -7.5 40t-21 32.5t-32 21.5t-39.5 8
q-42 0 -70 -29t-28 -72v-8q0 -21 7.5 -40t21 -32.5t31.5 -21.5t39 -8z" />
    <glyph glyph-name="cent" unicode="&#xa2;" horiz-adv-x="530" 
d="M283 -98q-9 0 -14.5 4.5t-5.5 18.5v108q-49 5 -89.5 24t-69 51t-44 75.5t-15.5 97.5q0 51 16.5 94.5t45.5 76.5t69 53.5t87 24.5v104q0 14 5.5 18.5t14.5 4.5h4q10 0 15 -4.5t5 -18.5v-103q53 -3 90.5 -20.5t60.5 -41.5q15 -15 23 -30t8 -23t-4 -14t-9 -9.5t-9 -5
t-5 -0.5q-20 42 -57 69.5t-100 31.5v-413q63 2 103.5 32t58.5 76q1 1 5.5 0t9.5 -4t9 -8.5t4 -13.5q0 -11 -9 -28t-27 -36q-23 -23 -61.5 -41t-90.5 -20v-107q0 -14 -5 -18.5t-15 -4.5h-4v0zM265 488q-37 -3 -69 -19t-54.5 -42.5t-35.5 -63.5t-13 -82q0 -43 13 -79
t35.5 -62.5t54.5 -42.5t69 -20v411z" />
    <glyph glyph-name="sterling" unicode="&#xa3;" horiz-adv-x="560" 
d="M46 0q-23 0 -23 20v5q0 20 23 20h62l41 223h-90q-23 0 -23 19v6q0 19 23 19h98l28 151q17 95 61.5 145.5t126.5 50.5q41 0 70.5 -12.5t48.5 -32.5q18 -19 27 -41.5t9 -41.5q0 -11 -5 -17t-11.5 -8.5t-12 -3t-6.5 0.5q-7 52 -37.5 82.5t-82.5 30.5q-64 0 -94.5 -38
t-45.5 -118l-27 -148h183q23 0 23 -19v-6q0 -19 -23 -19h-191l-41 -223h337q23 0 23 -21v-4q0 -20 -23 -20h-448v0z" />
    <glyph glyph-name="section" unicode="&#xa7;" horiz-adv-x="501" 
d="M246 -157q-69 0 -114 18.5t-68 41.5q-17 17 -24 31.5t-7 24.5q0 8 4 14t9 9.5t9 5.5t5 1q22 -45 66 -73.5t119 -28.5q72 0 114.5 27.5t42.5 74.5q0 29 -12.5 47t-34.5 30t-53 20l-69 17q-36 8 -71 18.5t-63 27t-45 41.5t-17 63q0 48 32.5 79.5t87.5 45.5
q-45 16 -73.5 44.5t-28.5 82.5q0 34 15.5 62t42 48t62.5 31t78 11q63 0 103 -17.5t63 -40.5q14 -14 20.5 -27.5t6.5 -21.5q0 -7 -4 -13t-9 -9.5t-9 -5.5t-5 -1q-22 39 -61.5 65.5t-104.5 26.5q-31 0 -58.5 -7t-47.5 -20.5t-32 -32.5t-12 -42q0 -27 12 -45t34 -31t52 -22
t67 -18q36 -8 71.5 -18t63 -26t45 -41t17.5 -63q0 -48 -31.5 -80.5t-85.5 -46.5q22 -7 40.5 -17.5t32 -25.5t21.5 -35.5t8 -49.5q0 -33 -15 -60.5t-42 -47t-64.5 -30.5t-82.5 -11zM293 136q27 3 50 12.5t40 24t26.5 32.5t9.5 37q0 27 -14 45t-37 30t-54 20.5t-66 16.5
l-19.5 4l-18.5 4q-28 -3 -51 -13t-40 -24t-26.5 -32t-9.5 -36q0 -27 13.5 -45.5t37 -30.5t54.5 -20l65 -16q10 -2 20 -4.5t20 -4.5z" />
    <glyph glyph-name="bullet" unicode="&#x2022;" horiz-adv-x="300" 
d="M150 160q-37 0 -62 25.5t-25 62.5t25 62.5t62 25.5t62 -25.5t25 -62.5t-25 -62.5t-62 -25.5z" />
    <glyph glyph-name="paragraph" unicode="&#xb6;" horiz-adv-x="583" 
d="M476 -3q-21 0 -21 23v607q0 23 21 23h7q22 0 22 -23v-607q0 -23 -22 -23h-7v0zM375 -3q-11 0 -16 6.5t-5 16.5v284h-89q-112 0 -171 42t-59 127t56.5 130t168.5 45h113q14 0 22 -8.5t8 -21.5v-598q0 -23 -21 -23h-7v0z" />
    <glyph glyph-name="germandbls" unicode="&#xdf;" horiz-adv-x="514" 
d="M304 -10q-44 0 -73.5 11t-45.5 27q-10 10 -14.5 19t-4.5 15q0 14 9 22t11 6q16 -23 43.5 -40.5t75.5 -17.5q27 0 50 10t40 28t26.5 43t9.5 54t-8.5 55t-29 47.5t-53 38.5t-80.5 28q-24 6 -33 15.5t-9 24.5q0 11 5 19.5t8 10.5q81 2 122.5 29t41.5 89q0 52 -35 85t-98 33
q-69 0 -107 -43t-38 -137v-442q0 -13 -6 -18t-15 -5h-5q-22 0 -22 23v442q0 112 52 167.5t142 55.5q41 0 74 -12t56 -33t36 -50t13 -63q0 -68 -40.5 -107t-127.5 -45q57 -13 96 -33.5t63.5 -46.5t35 -58.5t10.5 -69.5q0 -38 -13.5 -70.5t-37 -56t-55.5 -37t-69 -13.5z" />
    <glyph glyph-name="registered" unicode="&#xae;" horiz-adv-x="749" 
d="M374 -10q-72 0 -131.5 24.5t-103 68.5t-67.5 105t-24 134q0 72 25 133.5t68.5 106t103.5 70t130 25.5q72 0 131.5 -24.5t103 -68.5t67.5 -105t24 -134q0 -72 -25 -133.5t-68.5 -106t-103.5 -70t-130 -25.5zM375 25q63 0 115.5 22t90.5 61.5t59 94.5t21 121
q0 65 -21.5 119.5t-59.5 94t-91 62t-115 22.5q-63 0 -115.5 -22t-90 -61.5t-58.5 -94.5t-21 -121q0 -64 21.5 -119t59.5 -94.5t90.5 -62t114.5 -22.5zM384 328q42 0 63.5 17.5t21.5 49.5q0 66 -88 66h-80v-133h83zM510 171q2 -2 -5 -10t-19 -8q-7 0 -15 3.5t-16 12.5
l-110 122h-43v-117q0 -21 -20 -21h-6q-19 0 -19 23v296q0 27 25 27h101q63 0 96.5 -26t33.5 -78q0 -45 -29.5 -72.5t-89.5 -28.5z" />
    <glyph glyph-name="copyright" unicode="&#xa9;" horiz-adv-x="749" 
d="M374 -10q-72 0 -131.5 24.5t-103 68.5t-67.5 105t-24 134q0 72 25 133.5t68.5 106t103.5 70t130 25.5q72 0 131.5 -24.5t103 -68.5t67.5 -105t24 -134q0 -72 -25 -133.5t-68.5 -106t-103.5 -70t-130 -25.5zM375 25q63 0 115.5 22t90.5 61.5t59 94.5t21 121
q0 65 -21.5 119.5t-59.5 94t-91 62t-115 22.5q-63 0 -115.5 -22t-90 -61.5t-58.5 -94.5t-21 -121q0 -64 21.5 -119t59.5 -94.5t90.5 -62t114.5 -22.5zM383 145q-39 0 -71 13t-55 36.5t-35.5 56t-12.5 71.5q0 38 13.5 70.5t36.5 56.5t54.5 37.5t68.5 13.5q39 0 67.5 -12.5
t43.5 -28.5q21 -21 21 -40q0 -6 -3.5 -10.5t-8 -7.5t-8.5 -4.5t-5 -0.5q-12 27 -39 45t-69 18q-27 0 -50 -10.5t-40 -29t-27 -43t-10 -53.5q0 -30 9.5 -55t27 -43t41.5 -28.5t53 -10.5q46 0 71.5 21t36.5 47q1 1 5 0t8.5 -4t8.5 -7.5t4 -11.5t-6 -19.5t-20 -27.5
q-15 -15 -43 -27t-67 -12z" />
    <glyph glyph-name="trademark" unicode="&#x2122;" horiz-adv-x="653" 
d="M340 342q-16 0 -16 19v267q0 22 20 22h18q10 0 14.5 -4.5t8.5 -12.5l79 -168l80 168q5 10 9.5 13.5t13.5 3.5h17q19 0 19 -22v-267q0 -19 -16 -19h-5q-16 0 -16 19v236l-81 -172q-2 -5 -5 -8t-16 -3t-16 3t-5 8l-82 171v-235q0 -19 -14 -19h-7v0zM142 342q-17 0 -17 19
v251h-90q-18 0 -18 16v3q0 17 18 17h219q18 0 18 -17v-3q0 -16 -18 -16h-89v-251q0 -19 -18 -19h-5v0z" />
    <glyph glyph-name="acute" unicode="&#xb4;" 
d="M181 546q-1 2 7 12.5t23 26.5t36.5 35.5t47.5 38.5q17 13 27 17.5t18 4.5q9 0 15.5 -5.5t6.5 -14.5q0 -10 -8 -19.5t-31 -26.5q-27 -19 -52 -33t-44.5 -22.5t-31.5 -11.5t-14 -2z" />
    <glyph glyph-name="dieresis" unicode="&#xa8;" 
d="M330 545q-38 0 -38 38q0 37 37 37q17 0 27.5 -9.5t10.5 -27.5t-10 -28t-27 -10zM171 545q-17 0 -27.5 10t-10.5 28t10 27.5t27 9.5q38 0 38 -37q0 -18 -10 -28t-27 -10z" />
    <glyph glyph-name="AE" unicode="&#xc6;" horiz-adv-x="844" 
d="M560 0q-19 0 -27.5 7t-14.5 21l-75 196h-291l-80 -203q-6 -16 -16 -20.5t-19.5 -3t-16 6.5t-5.5 8l242 612q5 10 12.5 16.5t20.5 6.5h482q23 0 23 -20v-5q0 -20 -23 -20h-426l4.5 -10.5l11.5 -27.5l15.5 -39.5l17.5 -45.5l49 -124h257q24 0 24 -21v-4q0 -21 -24 -21h-238
l104 -264h218q23 0 23 -19v-5q0 -21 -23 -21h-225v0zM426 268l-128 327l-129 -327h257z" />
    <glyph glyph-name="Oslash" unicode="&#xd8;" horiz-adv-x="735" 
d="M71 -39q-1 -1 -5 0.5t-8.5 5t-8 8.5t-3.5 12t4 16t15 21l62 71q-38 45 -58.5 102.5t-20.5 124.5q0 70 23 131t65 106.5t100.5 71.5t129.5 26q60 0 110 -18t89 -50l79 91q1 1 5 -0.5t8 -5t7.5 -8.5t3.5 -12q0 -8 -3.5 -16.5t-14.5 -20.5l-52 -60q41 -45 62.5 -104.5
t21.5 -128.5q0 -70 -23 -131t-64.5 -106t-100 -71t-130.5 -26q-61 0 -112.5 18.5t-91.5 52.5q0 1 -13.5 -15l-30.5 -35zM532 554q-32 27 -74 42.5t-93 15.5q-61 0 -110 -22t-84 -61t-54 -92t-19 -114q0 -57 16.5 -106t47.5 -87zM366 35q61 0 110 22t83.5 61t53.5 91.5
t19 113.5q0 59 -17.5 110t-51.5 89l-185 -212l-68 -78l-59.5 -68l-42.5 -48.5l-16 -18.5q34 -29 78 -45.5t96 -16.5z" />
    <glyph glyph-name="infinity" unicode="&#x221e;" horiz-adv-x="383" 
d="M52 0q-23 0 -23 18v4q0 19 23 19h115v565h-115q-23 0 -23 18v4q0 19 23 19h279q24 0 24 -19v-4q0 -18 -24 -18h-114v-565h114q24 0 24 -19v-4q0 -18 -24 -18h-279v0z" />
    <glyph glyph-name="plusminus" unicode="&#xb1;" horiz-adv-x="370" 
d="M58 0q-23 0 -23 19v4q0 20 23 20h114v524q-11 -21 -33 -33.5t-50 -12.5q-38 0 -56 20q-13 12 -13 28q0 13 7.5 20.5t8.5 6.5q9 -11 23 -18t34 -7q33 0 57 23t26 56h22q22 0 22 -24v-583h106q23 0 23 -20v-4q0 -19 -23 -19h-268v0z" />
    <glyph glyph-name="lessequal" unicode="&#x2264;" horiz-adv-x="195" 
d="M97 601q-32 0 -32 33t34 33q32 0 32 -33t-34 -33zM95 -193q-21 0 -21 23v623q0 14 5.5 18.5t15.5 4.5h5q10 0 16 -4.5t6 -18.5v-623q0 -23 -22 -23h-5v0z" />
    <glyph glyph-name="yen" unicode="&#xa5;" horiz-adv-x="552" 
d="M273 -3q-20 0 -20 23v103h-173q-23 0 -23 19v5q0 19 23 19h173v99h-173q-23 0 -23 19v4q0 19 23 19h158l-204 322q-1 3 5 9t15 9.5t20 1.5t18 -16l184 -308l186 307q9 15 19 17.5t19 -1.5t14.5 -10t3.5 -9l-204 -322h157q14 0 19 -4.5t5 -14.5v-4q0 -10 -5 -14.5
t-19 -4.5h-172v-99h172q14 0 19 -5t5 -14v-5q0 -9 -5 -14t-19 -5h-172v-103q0 -23 -21 -23h-5v0z" />
    <glyph glyph-name="mu" unicode="&#xb5;" horiz-adv-x="566" 
d="M262 -10q-48 0 -89 18t-71.5 50t-47.5 78t-17 101q0 54 17 99.5t47.5 78t72.5 50.5t91 18q35 0 64 -8.5t52.5 -22.5t40.5 -32.5t27 -38.5v47q0 29 9.5 38.5t21.5 9.5q7 0 12 -2t5 -3v-451q0 -23 -22 -23h-5q-21 0 -21 23v75q-26 -47 -72.5 -76t-114.5 -29zM267 32
q38 0 71 13.5t58 36.5t39 54t14 66v111q-22 58 -67 93t-114 35q-40 0 -73.5 -15t-58 -42t-38 -64t-13.5 -82t13.5 -83t37.5 -65t57.5 -42.5t73.5 -15.5z" />
    <glyph glyph-name="mu" unicode="&#x3bc;" horiz-adv-x="566" 
d="M262 -10q-48 0 -89 18t-71.5 50t-47.5 78t-17 101q0 54 17 99.5t47.5 78t72.5 50.5t91 18q35 0 64 -8.5t52.5 -22.5t40.5 -32.5t27 -38.5v47q0 29 9.5 38.5t21.5 9.5q7 0 12 -2t5 -3v-451q0 -23 -22 -23h-5q-21 0 -21 23v75q-26 -47 -72.5 -76t-114.5 -29zM267 32
q38 0 71 13.5t58 36.5t39 54t14 66v111q-22 58 -67 93t-114 35q-40 0 -73.5 -15t-58 -42t-38 -64t-13.5 -82t13.5 -83t37.5 -65t57.5 -42.5t73.5 -15.5z" />
    <glyph glyph-name="partialdiff" unicode="&#x2202;" horiz-adv-x="566" 
d="M276 -197q-64 0 -108.5 18.5t-70.5 44.5q-14 14 -21.5 28.5t-7.5 23.5t4 15.5t9 10t9.5 4.5t5.5 0q9 -20 24.5 -38.5t37.5 -32.5t51.5 -22.5t67.5 -8.5q172 0 172 180v81q-26 -46 -72.5 -73.5t-114.5 -27.5q-49 0 -90.5 17t-71.5 48.5t-46.5 75t-16.5 97.5
q0 52 17.5 95.5t48.5 75.5t72.5 50t89.5 18q70 0 117 -29.5t67 -69.5v44q0 29 9.5 38.5t21.5 9.5q7 0 12 -2t5 -3v-445q0 -112 -58 -167.5t-163 -55.5zM267 47q38 0 71 12.5t57.5 35t39 53t14.5 65.5v101q-22 58 -66.5 92.5t-114.5 34.5q-40 0 -73.5 -14.5t-58 -41
t-38 -62.5t-13.5 -78q0 -45 13 -81.5t37 -62.5t57.5 -40t74.5 -14z" />
    <glyph glyph-name="summation" unicode="&#x2211;" horiz-adv-x="559" 
d="M386 -3q-21 0 -21 23v173h-290q-22 0 -30 8t-8 20v7q0 14 7.5 27l23.5 39l216 333q12 18 22.5 22t19 1.5t13 -8t4.5 -8.5l-257 -397h279v195q0 23 21 23h6q22 0 22 -23v-194h98q23 0 23 -21v-3q0 -21 -23 -21h-98v-173q0 -23 -22 -23h-6v0z" />
    <glyph glyph-name="product" unicode="&#x220f;" horiz-adv-x="635" 
d="M289 -10q-114 0 -167 59.5t-53 184.5v393q0 23 21 23h7q21 0 21 -23v-390q0 -107 41.5 -154.5t132.5 -47.5q37 0 71 12t62 33t49 49.5t32 61.5v436q0 23 21 23h7q22 0 22 -23v-625q0 -2 -4.5 -4t-12.5 -2q-12 0 -22 10.5t-10 45.5v66q-28 -54 -84 -91t-134 -37z" />
    <glyph glyph-name="pi" unicode="&#x3c0;" horiz-adv-x="749" 
d="M374 -10q-72 0 -131.5 24.5t-103 68.5t-67.5 105t-24 134q0 72 25 133.5t68.5 106t103.5 70t130 25.5q72 0 131.5 -24.5t103 -68.5t67.5 -105t24 -134q0 -72 -25 -133.5t-68.5 -106t-103.5 -70t-130 -25.5zM375 25q63 0 115.5 22t90.5 61.5t59 94.5t21 121
q0 65 -21.5 119.5t-59.5 94t-91 62t-115 22.5q-63 0 -115.5 -22t-90 -61.5t-58.5 -94.5t-21 -121q0 -64 21.5 -119t59.5 -94.5t90.5 -62t114.5 -22.5zM289 139q-18 0 -18 21v299q0 11 6.5 18.5t17.5 7.5h94q64 0 98.5 -28.5t34.5 -81.5q0 -54 -33.5 -82.5t-97.5 -28.5h-76
v-104q0 -21 -19 -21h-7v0zM392 300q43 0 65 19.5t22 54.5t-22.5 54.5t-67.5 19.5h-75v-148h78z" />
    <glyph glyph-name="integral" unicode="&#x222b;" horiz-adv-x="563" 
d="M278 -3q-21 0 -21 23v248q-206 15 -206 269v90q0 23 22 23h6q22 0 22 -23v-90q0 -115 44 -171t137 -56q94 0 137.5 55.5t43.5 172.5v89q0 23 21 23h7q21 0 21 -23v-88q0 -258 -206 -271v-248q0 -23 -21 -23h-7v0z" />
    <glyph glyph-name="ordfeminine" unicode="&#xaa;" horiz-adv-x="416" 
d="M174 262q-64 0 -101.5 27t-37.5 76q0 29 12.5 51t44 38t85.5 25.5t136 13.5v10q0 53 -28.5 83.5t-85.5 30.5q-47 0 -77 -20.5t-46 -49.5l-4 0.5t-8.5 3t-8.5 7.5t-4 13q0 15 23 40q18 17 49 31.5t79 14.5q78 0 117 -42t39 -112v-231q0 -5 -16 -5q-11 0 -19.5 8t-8.5 34
v31q-18 -35 -55.5 -56.5t-84.5 -21.5zM200 -5q-32 0 -32 32v6q0 32 32 32h6q32 0 32 -32v-6q0 -32 -32 -32h-6v0zM180 299q28 0 52.5 9t42.5 24t28.5 35t10.5 42v51q-72 -3 -117.5 -10.5t-71.5 -19.5t-35.5 -27.5t-9.5 -35.5q0 -32 27 -50t73 -18z" />
    <glyph glyph-name="ordmasculine" unicode="&#xba;" horiz-adv-x="464" 
d="M232 261q-41 0 -76.5 15t-61 41.5t-40 62.5t-14.5 78t15 78t41 63t61 42.5t76 15.5t76 -15t60.5 -41.5t40 -62.5t14.5 -78t-15 -78t-40.5 -63t-60.5 -42.5t-76 -15.5zM228 -5q-31 0 -31 32v6q0 32 31 32h6q32 0 32 -32v-6q0 -32 -32 -32h-6v0zM232 301q32 0 59.5 12
t47 33.5t30.5 50.5t11 62t-11 62t-31 50.5t-46.5 33.5t-58.5 12t-59.5 -12t-47 -33.5t-30.5 -50.5t-11 -62t11 -62t31 -50t47 -33.5t58 -12.5z" />
    <glyph glyph-name="Omega" unicode="&#x3a9;" horiz-adv-x="541" 
d="M261 -197q-60 0 -101 17.5t-64 41.5q-17 17 -24.5 33t-7.5 25q0 8 4 14t9 10t9 5.5t5 0.5q22 -50 61.5 -76.5t108.5 -26.5q83 0 123 40t40 129v83q-24 -43 -67 -70.5t-103 -27.5q-47 0 -82.5 15.5t-59 43t-35.5 66.5t-12 87v240q0 14 6 18.5t15 4.5h6q9 0 15 -4.5
t6 -18.5v-234q0 -79 36.5 -126.5t111.5 -47.5q56 0 98.5 30t64.5 81v272q0 29 9 38.5t22 9.5q7 0 12 -2t5 -3v-462q0 -103 -54 -154.5t-157 -51.5z" />
    <glyph glyph-name="Omega" unicode="&#x2126;" horiz-adv-x="541" 
d="M261 -197q-60 0 -101 17.5t-64 41.5q-17 17 -24.5 33t-7.5 25q0 8 4 14t9 10t9 5.5t5 0.5q22 -50 61.5 -76.5t108.5 -26.5q83 0 123 40t40 129v83q-24 -43 -67 -70.5t-103 -27.5q-47 0 -82.5 15.5t-59 43t-35.5 66.5t-12 87v240q0 14 6 18.5t15 4.5h6q9 0 15 -4.5
t6 -18.5v-234q0 -79 36.5 -126.5t111.5 -47.5q56 0 98.5 30t64.5 81v272q0 29 9 38.5t22 9.5q7 0 12 -2t5 -3v-462q0 -103 -54 -154.5t-157 -51.5z" />
    <glyph glyph-name="ae" unicode="&#xe6;" horiz-adv-x="867" 
d="M205 30q39 0 72.5 12t58 33t39 50.5t14.5 64.5v48h-12q-78 -1 -133 -8.5t-90 -21.5t-51.5 -36t-16.5 -52q0 -42 32 -66t87 -24zM782 270q-4 77 -49 124t-117 47q-36 0 -67.5 -12.5t-55.5 -35.5t-40 -54t-21 -69h350zM430 229q1 -43 15.5 -79.5t40 -62.5t60.5 -40.5
t77 -14.5q36 0 63 8.5t47.5 22t34 30.5t22.5 35q1 1 5.5 0t9.5 -4.5t9 -9t4 -14.5q0 -8 -7 -21.5t-23 -29.5q-23 -22 -64.5 -40.5t-100.5 -18.5q-80 0 -135 38t-78 103q-10 -32 -29.5 -58t-47 -44.5t-61 -28.5t-71.5 -10q-76 0 -120 35t-44 95q0 80 82 116.5t260 39.5h10v21
q0 69 -38 105.5t-107 36.5q-62 0 -101.5 -26t-59.5 -64l-4.5 1t-9.5 4t-9 8.5t-4 14.5q0 8 7 21t20 25q23 23 63.5 41.5t100.5 18.5q71 0 115 -33.5t58 -95.5q25 60 76 94.5t120 34.5q48 0 88 -17t68.5 -47.5t44 -73t15.5 -94.5v-4q0 -11 -5 -14.5t-16 -3.5h-381v0z" />
    <glyph glyph-name="oslash" unicode="&#xf8;" horiz-adv-x="557" 
d="M63 -32q-2 -2 -12 4.5t-10 17.5q0 6 3.5 14t13.5 19l44 48q-28 32 -44 74.5t-16 90.5q0 51 18.5 96t50.5 78.5t76 53t95 19.5q43 0 81 -13.5t68 -38.5l65 73q1 1 4.5 -0.5t7.5 -4.5t7 -7.5t3 -9.5q0 -7 -3.5 -15t-13.5 -19l-41 -45q29 -33 44.5 -75.5t15.5 -90.5
q0 -52 -18.5 -97t-50.5 -78.5t-75.5 -52.5t-94.5 -19q-44 0 -82 13.5t-68 38.5l-68 -74v0zM400 396q-24 20 -54 32t-65 12q-42 0 -76.5 -15.5t-60 -43t-39.5 -65t-14 -80.5q0 -38 11.5 -71.5t32.5 -59.5zM282 33q41 0 76 15.5t60.5 43t39.5 64.5t14 80q0 38 -12 72t-34 61
l-265 -292q25 -20 55.5 -32t65.5 -12z" />
    <glyph glyph-name="questiondown" unicode="&#xbf;" horiz-adv-x="458" 
d="M246 577q-17 0 -23.5 6.5t-6.5 22.5v15q0 16 6.5 22.5t23.5 6.5h14q29 0 29 -29v-15q0 -16 -6 -22.5t-23 -6.5h-14v0zM220 -10q-45 0 -80.5 12.5t-59.5 34t-37 50.5t-13 61q0 30 8.5 52t22.5 39.5t32 31t36 25.5l39 28t34 33t24 44t9 60q0 8 6 11t15 3q21 0 21 -17
q-1 -42 -11.5 -72t-26.5 -52t-35.5 -37.5t-39.5 -28.5l-31.5 -22t-27 -24.5t-18.5 -30.5t-7 -39q0 -51 36 -84.5t106 -33.5q40 0 69 12t49 32t31 45.5t15 51.5q1 1 6.5 0.5t12 -3.5t12 -9.5t5.5 -16.5q0 -14 -10.5 -42.5t-36.5 -54.5t-63.5 -42.5t-91.5 -16.5z" />
    <glyph glyph-name="exclamdown" unicode="&#xa1;" horiz-adv-x="232" 
d="M113 575q-35 0 -35 35v7q0 35 35 35h7q34 0 34 -35v-7q0 -35 -34 -35h-7v0zM107 -3q-10 0 -16 6t-5 23l15 428q1 20 12 20h6q11 0 12 -20l15 -428q2 -17 -4.5 -23t-16.5 -6h-18v0z" />
    <glyph glyph-name="logicalnot" unicode="&#xac;" horiz-adv-x="700" 
d="M368 -10q-73 0 -132 24.5t-101 68.5t-64.5 105t-22.5 134t23 134.5t65.5 106t101.5 69.5t131 25q75 0 126 -23t79 -51q18 -19 26.5 -35.5t8.5 -24.5q0 -10 -4.5 -16.5t-10 -9.5t-10 -3.5t-5.5 0.5q-12 25 -32.5 46.5t-47.5 38t-60.5 26t-71.5 9.5q-60 0 -109.5 -21.5
t-84.5 -60.5t-54 -92.5t-19 -116.5t19 -116t54 -91.5t84 -60.5t109 -22q50 0 92.5 15.5t73.5 45.5t49 73t19 98h-236q-23 0 -23 21v3q0 21 23 21h266q12 0 16.5 -5.5t4.5 -17.5v-9q0 -63 -20 -116t-56.5 -91.5t-89 -59.5t-117.5 -21z" />
    <glyph glyph-name="radical" unicode="&#x221a;" horiz-adv-x="713" 
d="M357 -9q-27 23 -60.5 44.5l-68 44t-67 47.5t-57.5 53.5t-40.5 62.5t-15.5 74v5q0 34 11 63.5t30.5 51t47 34t61.5 12.5h2q36 0 62.5 -12t45.5 -31t31 -43.5t18 -48.5q6 24 17.5 48.5t31 43.5t46 31t62.5 12h2q33 0 61 -12.5t47.5 -34t30.5 -51t11 -63.5v-5
q0 -61 -33 -106.5t-81 -83t-101 -70t-94 -66.5z" />
    <glyph glyph-name="florin" unicode="&#x192;" horiz-adv-x="375" 
d="M75 -3q-11 0 -17 4t-6 6l69 380h-75q-14 0 -19 5t-5 14v5q0 9 5 14t19 5h82l12 67q14 80 52.5 120t96.5 40q25 0 43.5 -7t29.5 -18q13 -13 13 -25q0 -13 -9 -21.5t-10 -7.5q-10 15 -29 25t-43 10q-38 0 -62 -29t-35 -95l-11 -59h128q14 0 19 -5t5 -14v-5q0 -9 -5 -14
t-19 -5h-135l-63 -348q-6 -42 -31 -42z" />
    <glyph glyph-name="Delta" unicode="&#x394;" horiz-adv-x="525" 
d="M440 271q-1 38 -14 69t-34.5 53.5t-52 35t-66.5 12.5q-37 0 -68.5 -12.5t-56 -35t-40.5 -54t-21 -68.5h353zM84 230q1 -43 15.5 -79.5t40.5 -63t61.5 -41t77.5 -14.5q37 0 64.5 8.5t48 22t34 30.5t22.5 35q1 1 5.5 0t9.5 -4.5t9 -9t4 -14.5q0 -8 -7 -21.5t-23 -29.5
q-22 -22 -64.5 -40.5t-102.5 -18.5q-54 0 -99 18.5t-76.5 51t-49 77.5t-17.5 98t18 98.5t49.5 78.5t74.5 52t94 19q49 0 89 -16.5t68.5 -47t44 -73t15.5 -94.5v-5q0 -11 -5 -14t-16 -3h-385v0z" />
    <glyph glyph-name="Delta" unicode="&#x2206;" horiz-adv-x="525" 
d="M440 271q-1 38 -14 69t-34.5 53.5t-52 35t-66.5 12.5q-37 0 -68.5 -12.5t-56 -35t-40.5 -54t-21 -68.5h353zM84 230q1 -43 15.5 -79.5t40.5 -63t61.5 -41t77.5 -14.5q37 0 64.5 8.5t48 22t34 30.5t22.5 35q1 1 5.5 0t9.5 -4.5t9 -9t4 -14.5q0 -8 -7 -21.5t-23 -29.5
q-22 -22 -64.5 -40.5t-102.5 -18.5q-54 0 -99 18.5t-76.5 51t-49 77.5t-17.5 98t18 98.5t49.5 78.5t74.5 52t94 19q49 0 89 -16.5t68.5 -47t44 -73t15.5 -94.5v-5q0 -11 -5 -14t-16 -3h-385v0z" />
    <glyph glyph-name="guillemotleft" unicode="&#xab;" horiz-adv-x="488" 
d="M419 83q-14 0 -37.5 16.5t-62.5 49.5q-42 36 -65.5 62t-23.5 31q0 4 23 29.5t65 61.5q39 34 63 50.5t38 16.5q8 0 13 -5t5 -12q0 -11 -20 -30.5t-66 -54.5l-38 -29.5l-38 -27.5l39 -27.5t39 -30.5q45 -35 64.5 -53.5t19.5 -29.5q0 -7 -5 -12t-13 -5zM220 94
q-13 0 -34 14.5t-58 46.5q-40 34 -62.5 58t-22.5 29q0 4 22.5 28t62.5 58q37 32 58 46.5t34 14.5q16 0 16 -17q0 -8 -17 -25.5t-59 -49.5l-36.5 -28.5t-37.5 -27.5l39 -28l39 -30q40 -32 56 -48t16 -24q0 -17 -16 -17z" />
    <glyph glyph-name="guillemotright" unicode="&#xbb;" horiz-adv-x="488" 
d="M268 95q-16 0 -16 16q0 9 17.5 26.5t58.5 49.5l36.5 28l37.5 27l-39 29l-39 30q-40 32 -56 48t-16 24q0 16 16 16q13 0 34 -14.5t58 -45.5q40 -35 62.5 -59t22.5 -28q0 -5 -22.5 -28.5t-62.5 -58.5q-37 -31 -58 -45.5t-34 -14.5zM69 83q-8 0 -13 5t-5 13q0 11 20 30
t66 54l38 29.5l38 27.5l-39 28.5t-39 29.5q-45 35 -64.5 53.5t-19.5 29.5q0 7 5 12t13 5q14 0 37.5 -16t62.5 -49q42 -37 65.5 -62.5t23.5 -30.5t-23 -30t-65 -62q-39 -34 -63 -50.5t-38 -16.5z" />
    <glyph glyph-name="ellipsis" unicode="&#x2026;" horiz-adv-x="574" 
d="M474 -5q-34 0 -34 35v7q0 35 34 35h8q34 0 34 -35v-7q0 -35 -34 -35h-8v0zM283 -5q-34 0 -34 35v7q0 35 34 35h7q35 0 35 -35v-7q0 -35 -35 -35h-7v0zM91 -5q-34 0 -34 35v7q0 35 34 35h8q35 0 35 -35v-7q0 -35 -35 -35h-8v0z" />
    <glyph glyph-name="nonbreakingspace" unicode="&#xa0;" horiz-adv-x="170" 
 />
    <glyph glyph-name="Agrave" unicode="&#xc0;" horiz-adv-x="597" 
d="M261 633q4 9 12 13.5t25 4.5q18 0 26 -4.5t12 -13.5l245 -621q1 -3 -5.5 -8t-16.5 -6.5t-20 3t-16 20.5l-81 203h-289l-81 -203q-6 -16 -16 -20.5t-19.5 -3t-16 6.5t-5.5 8zM426 268l-128 327l-129 -327h257zM339 718q-1 -1 -13.5 2t-32 11.5t-44.5 22.5t-52 33
q-23 17 -30.5 26.5t-7.5 19.5q0 9 6.5 14.5t14.5 5.5t18 -4.5t27 -17.5q26 -19 47.5 -38.5t36.5 -35.5t23 -26.5t7 -12.5z" />
    <glyph glyph-name="Atilde" unicode="&#xc3;" horiz-adv-x="597" 
d="M261 633q4 9 12 13.5t25 4.5q18 0 26 -4.5t12 -13.5l245 -621q1 -3 -5.5 -8t-16.5 -6.5t-20 3t-16 20.5l-81 203h-289l-81 -203q-6 -16 -16 -20.5t-19.5 -3t-16 6.5t-5.5 8zM426 268l-128 327l-129 -327h257zM363 716q-25 0 -43 12.5t-34 29.5q-15 15 -25 22t-21 7
q-15 0 -22 -11t-12 -31q-3 -12 -7.5 -17.5t-13.5 -5.5q-5 0 -9 2t-9 5q3 45 21 71.5t53 26.5q26 0 44 -12t33 -29q15 -15 25 -22t22 -7q14 0 21.5 11t12.5 31q3 11 7.5 17t13.5 6q8 0 17 -7q-2 -45 -20.5 -72t-53.5 -27z" />
    <glyph glyph-name="Otilde" unicode="&#xd5;" horiz-adv-x="735" 
d="M366 -10q-71 0 -129.5 24.5t-100.5 68.5t-65 105t-23 134t23.5 134.5t65.5 106t101 69.5t130 25t129.5 -24.5t100.5 -69t65 -105.5t23 -134t-23 -134t-65 -105.5t-101 -69.5t-131 -25zM368 33q60 0 109 21.5t84 60.5t54.5 92t19.5 116q0 62 -19.5 115.5t-55 92.5
t-84.5 61t-109 22t-109 -22t-84 -60.5t-54.5 -92t-19.5 -116.5t19.5 -116t55 -91.5t84.5 -60.5t109 -22zM426 718q-25 0 -43 12.5t-34 29.5q-15 15 -25 22t-21 7q-15 0 -22 -11t-12 -31q-3 -12 -7.5 -17.5t-13.5 -5.5q-5 0 -9 2t-9 5q3 45 21 71.5t53 26.5q26 0 44 -12
t33 -29q15 -15 25 -22t22 -7q14 0 21.5 11t12.5 31q3 11 7.5 17t13.5 6q8 0 17 -7q-2 -45 -20.5 -72t-53.5 -27z" />
    <glyph glyph-name="OE" unicode="&#x152;" horiz-adv-x="1017" 
d="M366 34q59 0 107.5 21.5t83.5 60t54.5 91.5t19.5 116q0 62 -19.5 115t-55 92t-84 61t-107.5 22q-58 0 -107 -21.5t-84 -60.5t-54.5 -92t-19.5 -116t19.5 -116t55 -91.5t84.5 -60t107 -21.5zM949 647q24 0 24 -20v-5q0 -20 -24 -20h-401q58 -40 92.5 -103.5t40.5 -144.5
h196q23 0 23 -20v-3q0 -21 -23 -21h-195q-3 -87 -38.5 -155t-96.5 -110h411q24 0 24 -19v-5q0 -21 -24 -21h-514q-37 -9 -80 -9q-70 0 -128 24.5t-100 68.5t-65 104.5t-23 133.5t23.5 134t65.5 105.5t100.5 69.5t128.5 25q43 0 80 -9h503z" />
    <glyph glyph-name="oe" unicode="&#x153;" horiz-adv-x="951" 
d="M277 32q41 0 75.5 15.5t60 42.5t40 64.5t14.5 80.5q0 44 -14.5 81.5t-40 65t-60 43.5t-75.5 16t-76.5 -15.5t-61 -43t-40 -64.5t-14.5 -81q0 -43 14.5 -80.5t40 -65.5t60.5 -43.5t77 -15.5zM866 271q-1 38 -14 69t-34.5 53.5t-51 35t-65.5 12.5t-67.5 -12.5t-55.5 -35
t-40 -54t-21 -68.5h349zM514 230q1 -43 15.5 -79.5t40 -63t60.5 -41t77 -14.5q36 0 63 8.5t47.5 22t34 30.5t22.5 35q1 1 5.5 0t9.5 -4.5t9 -9t4 -14.5q0 -8 -7 -21.5t-23 -29.5q-22 -22 -64 -40.5t-101 -18.5q-81 0 -137.5 39t-80.5 107q-24 -66 -80 -106t-132 -40
q-52 0 -96.5 19t-76 52t-49.5 78t-18 98t18 98t50 78t76 51.5t96 18.5q76 0 132.5 -41t81.5 -108q23 68 79 108.5t131 40.5q48 0 87.5 -17t68 -47.5t44 -73t15.5 -93.5v-5q0 -11 -5 -14t-16 -3h-381v0z" />
    <glyph glyph-name="endash" unicode="&#x2013;" horiz-adv-x="501" 
d="M65 227q-14 0 -18.5 4.5t-4.5 14.5v4q0 10 4.5 14.5t18.5 4.5h371q14 0 18.5 -4.5t4.5 -14.5v-4q0 -10 -4.5 -14.5t-18.5 -4.5h-371v0z" />
    <glyph glyph-name="emdash" unicode="&#x2014;" horiz-adv-x="664" 
d="M65 227q-14 0 -18.5 4.5t-4.5 14.5v4q0 10 4.5 14.5t18.5 4.5h534q14 0 18.5 -4.5t4.5 -14.5v-4q0 -10 -4.5 -14.5t-18.5 -4.5h-534v0z" />
    <glyph glyph-name="quotedblleft" unicode="&#x201c;" horiz-adv-x="330" 
d="M205 439q-9 0 -16 7t-7 19v3q0 6 2.5 14.5t10.5 21.5l76 149q2 3 7 4t9.5 -0.5t7.5 -5t1 -9.5l-58 -176q-5 -13 -10 -20t-19 -7h-4v0zM67 439q-9 0 -16 7t-7 19v3q0 6 2 14.5t10 21.5l77 149q2 3 6.5 4t9.5 -0.5t8 -5t1 -9.5l-58 -176q-5 -13 -10.5 -20t-19.5 -7h-3v0z
" />
    <glyph glyph-name="quotedblright" unicode="&#x201d;" horiz-adv-x="330" 
d="M197 443q-1 -3 -6 -3.5t-10 1t-8 5t-1 9.5l59 175q5 14 10 20.5t19 6.5h4q9 0 15.5 -7t6.5 -19v-3q0 -6 -2 -14.5t-10 -21.5l-77 -149v0zM58 443q-1 -3 -6 -3.5t-10 1t-8 5t-1 9.5l59 175q5 14 10 20.5t19 6.5h4q9 0 15.5 -7t6.5 -19v-3q0 -6 -2 -14.5t-10 -21.5
l-77 -149v0z" />
    <glyph glyph-name="quoteleft" unicode="&#x2018;" horiz-adv-x="191" 
d="M67 439q-10 0 -16.5 7t-6.5 19v3q0 6 2 14.5t10 21.5l77 149q2 3 6.5 4t9.5 -0.5t8 -5t1 -9.5l-58 -176q-5 -13 -10.5 -20t-19.5 -7h-3v0z" />
    <glyph glyph-name="quoteright" unicode="&#x2019;" horiz-adv-x="191" 
d="M59 443q-2 -3 -7 -3.5t-9.5 1t-7.5 5t-1 9.5l59 175q5 14 10 20.5t19 6.5h3q10 0 16.5 -7t6.5 -19v-3q0 -6 -2 -14.5t-10 -21.5l-77 -149v0z" />
    <glyph glyph-name="ydieresis" unicode="&#xff;" horiz-adv-x="458" 
d="M167 -193q-10 0 -18 5.5t-7 7.5l84 206q-13 0 -19 4t-11 15l-182 417q0 4 6.5 9t15.5 5.5t19 -6t18 -25.5l166 -391l147 388q8 21 18 28t19 6.5t15.5 -5.5t6.5 -8l-244 -624q-7 -20 -15.5 -26t-18.5 -6zM312 545q-38 0 -38 38q0 37 37 37q17 0 27.5 -9.5t10.5 -27.5
t-10 -28t-27 -10zM153 545q-17 0 -27.5 10t-10.5 28t10 27.5t27 9.5q38 0 38 -37q0 -18 -10 -28t-27 -10z" />
    <glyph glyph-name="Ydieresis" unicode="&#x178;" horiz-adv-x="538" 
d="M265 -3q-21 0 -21 23v257l-236 352q-1 5 4.5 10.5t14.5 8.5t19 0.5t18 -15.5l205 -311l205 310q9 14 19 16.5t18.5 -0.5t13.5 -9.5t4 -9.5l-235 -352v-257q0 -23 -22 -23h-7v0zM349 720q-38 0 -38 38q0 37 37 37q17 0 27.5 -9.5t10.5 -27.5t-10 -28t-27 -10zM190 720
q-17 0 -27.5 10t-10.5 28t10 27.5t27 9.5q38 0 38 -37q0 -18 -10 -28t-27 -10z" />
    <glyph glyph-name="fraction" unicode="&#x2044;" horiz-adv-x="619" 
d="M45 -7q-2 -2 -12.5 3t-10.5 17q0 11 4.5 19.5t17.5 22.5l530 604q2 2 12.5 -2.5t10.5 -18.5q0 -8 -5 -18t-17 -23l-530 -604v0z" />
    <glyph glyph-name="fraction" unicode="&#x2215;" horiz-adv-x="619" 
d="M45 -7q-2 -2 -12.5 3t-10.5 17q0 11 4.5 19.5t17.5 22.5l530 604q2 2 12.5 -2.5t10.5 -18.5q0 -8 -5 -18t-17 -23l-530 -604v0z" />
    <glyph glyph-name="currency" unicode="&#xa4;" horiz-adv-x="624" 
d="M387 -10q-103 0 -167.5 62t-81.5 174h-79q-23 0 -23 19v4q0 19 23 19h74q-1 8 -1 16.5v17.5v45v18t1 19h-74q-23 0 -23 19v4q0 19 23 19h80q18 107 82 169t161 62q60 0 100 -18.5t64 -43.5q17 -17 25 -34.5t8 -30.5q0 -8 -4 -13.5t-9.5 -9t-10 -4.5t-5.5 0
q-9 22 -23.5 42.5t-35 36t-48 24.5t-63.5 9q-75 0 -125.5 -50.5t-67.5 -138.5h230q14 0 19 -4.5t5 -14.5v-4q0 -10 -5 -14.5t-19 -4.5h-236q-1 -9 -1 -18v-19v-47v-16t1 -16h236q14 0 19 -4.5t5 -14.5v-4q0 -10 -5 -14.5t-19 -4.5h-230q17 -88 68.5 -141t129.5 -53
q36 0 64 9.5t48.5 26t34.5 38t23 45.5q1 1 5.5 0t10 -4t10 -9t4.5 -15q0 -14 -9.5 -33t-27.5 -37q-26 -26 -66.5 -44.5t-94.5 -18.5z" />
    <glyph glyph-name="guilsinglleft" unicode="&#x2039;" horiz-adv-x="302" 
d="M233 83q-14 0 -37.5 16.5t-62.5 49.5q-42 36 -65.5 62t-23.5 31q0 4 23 29.5t65 61.5q39 35 63 51t38 16q8 0 13 -5t5 -12q0 -11 -20 -30.5t-66 -54.5l-38 -29t-38 -28l39 -27.5t39 -30.5q45 -35 64.5 -53.5t19.5 -29.5q0 -7 -5 -12t-13 -5z" />
    <glyph glyph-name="guilsinglright" unicode="&#x203a;" horiz-adv-x="302" 
d="M69 83q-8 0 -13 5t-5 13q0 11 20 30t66 54l38 29.5l38 27.5l-39 28.5t-39 29.5q-45 35 -64.5 53.5t-19.5 29.5q0 7 5 12t13 5q14 0 37.5 -16t62.5 -49q42 -37 65.5 -62.5t23.5 -30.5t-23 -30t-65 -62q-39 -34 -63 -50.5t-38 -16.5z" />
    <glyph glyph-name="fi" unicode="&#xfb01;" horiz-adv-x="507" 
d="M409 601q-33 0 -33 33t34 33q33 0 33 -33t-34 -33zM133 -3q-21 0 -21 23v410h-79q-14 0 -18.5 5t-4.5 14v5q0 9 4.5 14t18.5 5h79v51q0 81 34 122.5t97 41.5q29 0 48.5 -7.5t31.5 -18.5q11 -11 11 -25q0 -12 -6 -18t-8 -5q-11 14 -32.5 23t-44.5 9q-42 0 -63.5 -29.5
t-21.5 -95.5v-48h105q14 0 19 -5t5 -14v-5q0 -9 -5 -14t-19 -5h-104v-410q0 -23 -21 -23h-5v0zM406 -3q-9 0 -15 4.5t-6 18.5v433q0 14 6 18.5t15 4.5h6q9 0 15 -4.5t6 -18.5v-433q0 -14 -6 -18.5t-15 -4.5h-6v0z" />
    <glyph glyph-name="fl" unicode="&#xfb02;" horiz-adv-x="507" 
d="M133 -3q-21 0 -21 23v410h-79q-14 0 -18.5 5t-4.5 14v5q0 9 4.5 14t18.5 5h79v51q0 81 34 122.5t97 41.5q29 0 48.5 -7.5t31.5 -18.5q11 -11 11 -25q0 -12 -6 -18t-8 -5q-11 14 -32.5 23t-44.5 9q-42 0 -63.5 -29.5t-21.5 -95.5v-48h105q14 0 19 -5t5 -14v-5q0 -9 -5 -14
t-19 -5h-104v-410q0 -23 -21 -23h-5v0zM407 -3q-22 0 -22 23v653q0 1 4.5 3t11.5 2q13 0 22.5 -9t9.5 -38v-611q0 -13 -6 -18t-15 -5h-5v0z" />
    <glyph glyph-name="daggerdbl" unicode="&#x2021;" horiz-adv-x="497" 
d="M246 -155q-12 0 -15.5 6.5t-3.5 17.5l-3 237l-164 -8q-20 -2 -27 3t-7 21t7 21t27 3l164 -8l-1 178q0 15 3 31.5t8 32.5l-174 -8q-20 -2 -27 3t-7 21t7 21.5t27 3.5l173 -9l-10 205q-2 20 3.5 27t22.5 7t22.5 -7t3.5 -27l-10 -205l172 9q20 2 27.5 -3.5t7.5 -21.5
t-7.5 -21t-27.5 -3l-174 8q5 -16 8.5 -32.5t3.5 -31.5l-2 -178l164 8q20 2 27.5 -3t7.5 -21t-7.5 -21t-27.5 -3l-164 8l-2 -237q0 -11 -4 -17.5t-16 -6.5h-5v0z" />
    <glyph glyph-name="periodcentered" unicode="&#xb7;" horiz-adv-x="206" 
d="M99 210q-34 0 -34 34v8q0 16 8.5 25.5t25.5 9.5h7q17 0 26 -9.5t9 -25.5v-8q0 -34 -35 -34h-7v0z" />
    <glyph glyph-name="periodcentered" unicode="&#x2219;" horiz-adv-x="206" 
d="M99 210q-34 0 -34 34v8q0 16 8.5 25.5t25.5 9.5h7q17 0 26 -9.5t9 -25.5v-8q0 -34 -35 -34h-7v0z" />
    <glyph glyph-name="quotesinglbase" unicode="&#x201a;" horiz-adv-x="186" 
d="M42 -134q-1 -3 -6 -4t-10 0.5t-8 5t-1 9.5l59 175q5 14 10 20.5t19 6.5h4q9 0 15.5 -6.5t6.5 -19.5v-3q0 -6 -2 -14.5t-10 -21.5l-77 -148v0z" />
    <glyph glyph-name="quotedblbase" unicode="&#x201e;" horiz-adv-x="325" 
d="M181 -134q-2 -3 -7 -4t-9.5 0.5t-7.5 5t-1 9.5l59 175q5 14 10 20.5t19 6.5h3q10 0 16.5 -6.5t6.5 -19.5v-3q0 -6 -2 -14.5t-10 -21.5l-77 -148v0zM41 -134q-1 -3 -6 -4t-9.5 0.5t-7.5 5t-1 9.5l58 175q5 14 10 20.5t19 6.5h4q9 0 15.5 -6.5t6.5 -19.5v-3
q0 -6 -1.5 -14.5t-9.5 -21.5l-78 -148v0z" />
    <glyph glyph-name="perthousand" unicode="&#x2030;" horiz-adv-x="1041" 
d="M184 358q-30 0 -56.5 11.5t-45.5 31t-30 46t-11 56.5v7q0 30 11 56.5t30.5 46.5t46 31.5t56.5 11.5t56.5 -11.5t45.5 -31t30 -45.5t11 -56v-8q0 -30 -11 -56.5t-30.5 -46.5t-46 -31.5t-56.5 -11.5zM102 -6q-1 -1 -4.5 0t-7.5 3.5t-7.5 7t-3.5 10.5q0 11 4.5 19t17.5 22
l501 601q1 1 5 0t8 -3t7.5 -6.5t3.5 -11.5q0 -15 -23 -41l-501 -601v0zM859 -5q-30 0 -56.5 11.5t-45.5 31t-30 46t-11 56.5v7q0 30 11 56.5t30.5 46.5t46 31.5t56.5 11.5t56.5 -11.5t45.5 -31t30 -45.5t11 -56v-8q0 -30 -11 -56.5t-30.5 -46.5t-46 -31.5t-56.5 -11.5z
M523 -5q-31 0 -57 11.5t-45 31t-30 46t-11 56.5v7q0 30 11 56.5t30.5 46.5t45.5 31.5t56 11.5q31 0 57 -11.5t45.5 -31t30.5 -45.5t11 -56v-8q0 -30 -11 -56.5t-30.5 -46.5t-46 -31.5t-56.5 -11.5zM185 397q44 0 72 30t28 75v10q0 23 -7.5 42t-21 33.5t-32 22.5t-40.5 8
q-44 0 -71.5 -30.5t-27.5 -75.5v-10q0 -45 28 -75t72 -30zM860 34q44 0 71.5 30t27.5 75v10q0 45 -28 75.5t-72 30.5t-71.5 -30.5t-27.5 -75.5v-10q0 -45 28 -75t72 -30zM524 34q43 0 71 30t28 75v10q0 45 -28 75.5t-72 30.5t-72 -30.5t-28 -75.5v-10q0 -45 28.5 -75
t72.5 -30z" />
    <glyph glyph-name="Acircumflex" unicode="&#xc2;" horiz-adv-x="597" 
d="M261 633q4 9 12 13.5t25 4.5q18 0 26 -4.5t12 -13.5l245 -621q1 -3 -5.5 -8t-16.5 -6.5t-20 3t-16 20.5l-81 203h-289l-81 -203q-6 -16 -16 -20.5t-19.5 -3t-16 6.5t-5.5 8zM426 268l-128 327l-129 -327h257zM194 711q-16 0 -16 17q0 12 13 30t38 47q29 32 48 48.5
t21 16.5t21.5 -16.5t45.5 -46.5q25 -29 38.5 -48t13.5 -31q0 -17 -15 -17q-10 0 -23 13t-42 50l-20 26l-20 27l-19.5 -25.5l-20.5 -28.5q-25 -34 -39 -48t-24 -14z" />
    <glyph glyph-name="Ecircumflex" unicode="&#xca;" horiz-adv-x="564" 
d="M108 0q-13 0 -21 8.5t-8 21.5v587q0 13 8 21.5t21 8.5h388q23 0 23 -20v-5q0 -20 -23 -20h-368v-248h285q23 0 23 -20v-3q0 -21 -23 -21h-285v-265h377q23 0 23 -19v-5q0 -21 -23 -21h-397v0zM198 719q-16 0 -16 17q0 12 13 30t38 47q29 32 48 48.5t21 16.5t21.5 -16.5
t45.5 -46.5q25 -29 38.5 -48t13.5 -31q0 -17 -15 -17q-10 0 -23 13t-42 50l-20 26l-20 27l-19.5 -25.5l-20.5 -28.5q-25 -34 -39 -48t-24 -14z" />
    <glyph glyph-name="Aacute" unicode="&#xc1;" horiz-adv-x="597" 
d="M261 633q4 9 12 13.5t25 4.5q18 0 26 -4.5t12 -13.5l245 -621q1 -3 -5.5 -8t-16.5 -6.5t-20 3t-16 20.5l-81 203h-289l-81 -203q-6 -16 -16 -20.5t-19.5 -3t-16 6.5t-5.5 8zM426 268l-128 327l-129 -327h257zM248 721q-1 2 7 12.5t23 26.5t36.5 35.5t47.5 38.5
q17 13 27 17.5t18 4.5q9 0 15.5 -5.5t6.5 -14.5q0 -10 -8 -19.5t-31 -26.5q-27 -19 -52 -33t-44.5 -22.5t-31.5 -11.5t-14 -2z" />
    <glyph glyph-name="Edieresis" unicode="&#xcb;" horiz-adv-x="564" 
d="M108 0q-13 0 -21 8.5t-8 21.5v587q0 13 8 21.5t21 8.5h388q23 0 23 -20v-5q0 -20 -23 -20h-368v-248h285q23 0 23 -20v-3q0 -21 -23 -21h-285v-265h377q23 0 23 -19v-5q0 -21 -23 -21h-397v0zM381 720q-38 0 -38 38q0 37 37 37q17 0 27.5 -9.5t10.5 -27.5t-10 -28
t-27 -10zM222 720q-17 0 -27.5 10t-10.5 28t10 27.5t27 9.5q38 0 38 -37q0 -18 -10 -28t-27 -10z" />
    <glyph glyph-name="Egrave" unicode="&#xc8;" horiz-adv-x="564" 
d="M108 0q-13 0 -21 8.5t-8 21.5v587q0 13 8 21.5t21 8.5h388q23 0 23 -20v-5q0 -20 -23 -20h-368v-248h285q23 0 23 -20v-3q0 -21 -23 -21h-285v-265h377q23 0 23 -19v-5q0 -21 -23 -21h-397v0zM367 721q-1 -1 -13.5 2t-32 11.5t-44.5 22.5t-52 33q-23 17 -30.5 26.5
t-7.5 19.5q0 9 6.5 14.5t14.5 5.5t18 -4.5t27 -17.5q26 -19 47.5 -38.5t36.5 -35.5t23 -26.5t7 -12.5z" />
    <glyph glyph-name="Iacute" unicode="&#xcd;" horiz-adv-x="227" 
d="M110 -3q-21 0 -21 23v607q0 23 21 23h7q21 0 21 -23v-607q0 -23 -21 -23h-7v0zM68 718q-1 2 7 12.5t23 26.5t36.5 35.5t47.5 38.5q17 13 27 17.5t18 4.5q9 0 15.5 -5.5t6.5 -14.5q0 -10 -8 -19.5t-31 -26.5q-27 -19 -52 -33t-44.5 -22.5t-31.5 -11.5t-14 -2z" />
    <glyph glyph-name="Icircumflex" unicode="&#xce;" horiz-adv-x="227" 
d="M110 -3q-21 0 -21 23v607q0 23 21 23h7q21 0 21 -23v-607q0 -23 -21 -23h-7v0zM10 716q-16 0 -16 17q0 12 13 30t38 47q29 32 48 48.5t21 16.5t21.5 -16.5t45.5 -46.5q25 -29 38.5 -48t13.5 -31q0 -17 -15 -17q-10 0 -23 13t-42 50l-20 26l-20 27l-19.5 -25.5
l-20.5 -28.5q-25 -34 -39 -48t-24 -14z" />
    <glyph glyph-name="Idieresis" unicode="&#xcf;" horiz-adv-x="227" 
d="M110 -3q-21 0 -21 23v607q0 23 21 23h7q21 0 21 -23v-607q0 -23 -21 -23h-7v0zM194 720q-38 0 -38 38q0 37 37 37q17 0 27.5 -9.5t10.5 -27.5t-10 -28t-27 -10zM35 720q-17 0 -27.5 10t-10.5 28t10 27.5t27 9.5q38 0 38 -37q0 -18 -10 -28t-27 -10z" />
    <glyph glyph-name="Igrave" unicode="&#xcc;" horiz-adv-x="227" 
d="M110 -3q-21 0 -21 23v607q0 23 21 23h7q21 0 21 -23v-607q0 -23 -21 -23h-7v0zM161 718q-1 -1 -13.5 2t-32 11.5t-44.5 22.5t-52 33q-23 17 -30.5 26.5t-7.5 19.5q0 9 6.5 14.5t14.5 5.5t18 -4.5t27 -17.5q26 -19 47.5 -38.5t36.5 -35.5t23 -26.5t7 -12.5z" />
    <glyph glyph-name="Oacute" unicode="&#xd3;" horiz-adv-x="735" 
d="M366 -10q-71 0 -129.5 24.5t-100.5 68.5t-65 105t-23 134t23.5 134.5t65.5 106t101 69.5t130 25t129.5 -24.5t100.5 -69t65 -105.5t23 -134t-23 -134t-65 -105.5t-101 -69.5t-131 -25zM368 33q60 0 109 21.5t84 60.5t54.5 92t19.5 116q0 62 -19.5 115.5t-55 92.5
t-84.5 61t-109 22t-109 -22t-84 -60.5t-54.5 -92t-19.5 -116.5t19.5 -116t55 -91.5t84.5 -60.5t109 -22zM321 721q-1 2 7 12.5t23 26.5t36.5 35.5t47.5 38.5q17 13 27 17.5t18 4.5q9 0 15.5 -5.5t6.5 -14.5q0 -10 -8 -19.5t-31 -26.5q-27 -19 -52 -33t-44.5 -22.5
t-31.5 -11.5t-14 -2z" />
    <glyph glyph-name="Ocircumflex" unicode="&#xd4;" horiz-adv-x="735" 
d="M366 -10q-71 0 -129.5 24.5t-100.5 68.5t-65 105t-23 134t23.5 134.5t65.5 106t101 69.5t130 25t129.5 -24.5t100.5 -69t65 -105.5t23 -134t-23 -134t-65 -105.5t-101 -69.5t-131 -25zM368 33q60 0 109 21.5t84 60.5t54.5 92t19.5 116q0 62 -19.5 115.5t-55 92.5
t-84.5 61t-109 22t-109 -22t-84 -60.5t-54.5 -92t-19.5 -116.5t19.5 -116t55 -91.5t84.5 -60.5t109 -22zM261 719q-16 0 -16 17q0 12 13 30t38 47q29 32 48 48.5t21 16.5t21.5 -16.5t45.5 -46.5q25 -29 38.5 -48t13.5 -31q0 -17 -15 -17q-10 0 -23 13t-42 50l-20 26l-20 27
l-19.5 -25.5l-20.5 -28.5q-25 -34 -39 -48t-24 -14z" />
    <glyph glyph-name="apple" horiz-adv-x="764" 
d="M298 28l-146 -60q-18 -8 -29.5 3.5t-3.5 29.5l59 146l-146 61q-18 7 -18 23t18 23l146 61l-59 146q-8 18 3.5 29.5t29.5 3.5l146 -60l61 147q7 18 23 18t23 -18l61 -147l146 60q9 4 17 3t13 -6t6.5 -13t-2.5 -17l-60 -146l146 -61q18 -7 18 -23t-18 -23l-146 -61l60 -146
q4 -9 2.5 -17t-6.5 -13t-13 -6t-17 3l-146 60l-61 -147q-7 -18 -23 -18t-23 18zM439 62q3 6 9 9t13 0l135 -54l-54 135q-5 15 9 22l134 57l-134 57q-14 7 -9 22l54 135l-135 -54q-8 -3 -13.5 0t-8.5 9l-57 134l-57 -134q-3 -6 -9 -9t-13 0l-135 54l54 -135q2 -6 -0.5 -12.5
t-8.5 -9.5l-134 -57l134 -57q6 -3 8.5 -9.5t0.5 -12.5l-54 -135l135 54q7 3 13 0t9 -9l57 -134z" />
    <glyph glyph-name="Ograve" unicode="&#xd2;" horiz-adv-x="735" 
d="M366 -10q-71 0 -129.5 24.5t-100.5 68.5t-65 105t-23 134t23.5 134.5t65.5 106t101 69.5t130 25t129.5 -24.5t100.5 -69t65 -105.5t23 -134t-23 -134t-65 -105.5t-101 -69.5t-131 -25zM368 33q60 0 109 21.5t84 60.5t54.5 92t19.5 116q0 62 -19.5 115.5t-55 92.5
t-84.5 61t-109 22t-109 -22t-84 -60.5t-54.5 -92t-19.5 -116.5t19.5 -116t55 -91.5t84.5 -60.5t109 -22zM410 721q-1 -1 -13.5 2t-32 11.5t-44.5 22.5t-52 33q-23 17 -30.5 26.5t-7.5 19.5q0 9 6.5 14.5t14.5 5.5t18 -4.5t27 -17.5q26 -19 47.5 -38.5t36.5 -35.5t23 -26.5
t7 -12.5z" />
    <glyph glyph-name="Uacute" unicode="&#xda;" horiz-adv-x="631" 
d="M314 -10q-121 0 -183 66t-62 196v375q0 23 21 23h7q21 0 21 -23v-372q0 -220 198 -220q197 0 197 221v371q0 23 21 23h9q19 0 19 -23v-373q0 -131 -63 -197.5t-185 -66.5zM264 709q-1 2 7 12.5t23 26.5t36.5 35.5t47.5 38.5q17 13 27 17.5t18 4.5q9 0 15.5 -5.5
t6.5 -14.5q0 -10 -8 -19.5t-31 -26.5q-27 -19 -52 -33t-44.5 -22.5t-31.5 -11.5t-14 -2z" />
    <glyph glyph-name="Ucircumflex" unicode="&#xdb;" horiz-adv-x="631" 
d="M314 -10q-121 0 -183 66t-62 196v375q0 23 21 23h7q21 0 21 -23v-372q0 -220 198 -220q197 0 197 221v371q0 23 21 23h9q19 0 19 -23v-373q0 -131 -63 -197.5t-185 -66.5zM209 714q-16 0 -16 17q0 12 13 30t38 47q29 32 48 48.5t21 16.5t21.5 -16.5t45.5 -46.5
q25 -29 38.5 -48t13.5 -31q0 -17 -15 -17q-10 0 -23 13t-42 50l-20 26l-20 27l-19.5 -25.5l-20.5 -28.5q-25 -34 -39 -48t-24 -14z" />
    <glyph glyph-name="Ugrave" unicode="&#xd9;" horiz-adv-x="631" 
d="M314 -10q-121 0 -183 66t-62 196v375q0 23 21 23h7q21 0 21 -23v-372q0 -220 198 -220q197 0 197 221v371q0 23 21 23h9q19 0 19 -23v-373q0 -131 -63 -197.5t-185 -66.5zM368 709q-1 -1 -13.5 2t-32 11.5t-44.5 22.5t-52 33q-23 17 -30.5 26.5t-7.5 19.5q0 9 6.5 14.5
t14.5 5.5t18 -4.5t27 -17.5q26 -19 47.5 -38.5t36.5 -35.5t23 -26.5t7 -12.5z" />
    <glyph glyph-name="dotlessi" unicode="&#x131;" horiz-adv-x="195" 
d="M95 -3q-10 0 -15.5 4.5t-5.5 18.5v433q0 14 5.5 18.5t15.5 4.5h5q10 0 16 -4.5t6 -18.5v-433q0 -14 -6 -18.5t-16 -4.5h-5v0z" />
    <glyph glyph-name="circumflex" unicode="&#x2c6;" 
d="M146 544q-16 0 -16 17q0 12 13 30t38 47q29 32 48 48.5t21 16.5t21.5 -16.5t45.5 -46.5q25 -29 38.5 -48t13.5 -31q0 -17 -15 -17q-10 0 -23 13t-42 50l-20 26l-20 27l-19.5 -25.5l-20.5 -28.5q-25 -34 -39 -48t-24 -14z" />
    <glyph glyph-name="tilde" unicode="&#x2dc;" 
d="M310 543q-25 0 -43 12.5t-34 29.5q-15 15 -25 22t-21 7q-15 0 -22 -11t-12 -31q-3 -12 -7.5 -17.5t-13.5 -5.5q-5 0 -9 2t-9 5q3 45 21 71.5t53 26.5q26 0 44 -12t33 -29q15 -15 25 -22t22 -7q14 0 21.5 11t12.5 31q3 11 7.5 17t13.5 6q8 0 17 -7q-2 -45 -20.5 -72
t-53.5 -27z" />
    <glyph glyph-name="macron" unicode="&#xaf;" 
d="M148 566q-29 0 -29 22v3q0 21 29 21h204q29 0 29 -21v-3q0 -22 -29 -22h-204v0z" />
    <glyph glyph-name="macron" unicode="&#x2c9;" 
d="M148 566q-29 0 -29 22v3q0 21 29 21h204q29 0 29 -21v-3q0 -22 -29 -22h-204v0z" />
    <glyph glyph-name="breve" unicode="&#x2d8;" 
d="M250 545q-32 0 -57 11.5t-42 28.5q-16 17 -23.5 34t-7.5 27t6 18.5t23 8.5q13 -38 39 -61.5t62 -23.5t62 23.5t39 61.5q17 0 23 -8.5t6 -18.5t-7.5 -27t-23.5 -34q-17 -17 -42 -28.5t-57 -11.5z" />
    <glyph glyph-name="dotaccent" unicode="&#x2d9;" 
d="M250 546q-20 0 -30.5 11.5t-10.5 28.5t11 28t31 11q19 0 30 -11t11 -28t-11 -28.5t-31 -11.5z" />
    <glyph glyph-name="ring" unicode="&#x2da;" 
d="M249 543q-48 0 -77.5 31t-29.5 78t30.5 78t77.5 31q48 0 77.5 -31t29.5 -78q0 -46 -30.5 -77.5t-77.5 -31.5zM249 577q31 0 51 21.5t20 53.5t-20 54t-51 22t-51 -22t-20 -54t20 -53.5t51 -21.5z" />
    <glyph glyph-name="cedilla" unicode="&#xb8;" 
d="M194 -213q-2 -3 -7.5 -3.5t-10 1t-7.5 5t0 9.5l62 127q5 12 10.5 19t19.5 7h4q10 0 17.5 -5.5t7.5 -16.5v-3q0 -6 -5.5 -13l-13.5 -18l-77 -109v0z" />
    <glyph glyph-name="hungarumlaut" unicode="&#x2dd;" 
d="M272 546q-1 2 7 12.5t23 26.5t36 35.5t47 38.5q17 13 27 17.5t18 4.5q9 0 15.5 -5.5t6.5 -14.5q0 -10 -8 -19.5t-30 -26.5q-27 -19 -52 -33t-44.5 -22.5t-31.5 -11.5t-14 -2zM109 546q-1 2 7 12.5t23 26.5t36.5 35.5t47.5 38.5q17 13 27 17.5t18 4.5t14.5 -5.5t6.5 -14.5
q0 -10 -7.5 -19.5t-30.5 -26.5q-27 -19 -52 -33t-44.5 -22.5t-31.5 -11.5t-14 -2z" />
    <glyph glyph-name="ogonek" unicode="&#x2db;" 
d="M295 -186q-14 0 -18.5 7.5l-11.5 18.5l-84 160h31l93 -131q9 -11 14 -18t5 -13v-3q0 -10 -7.5 -15.5t-17.5 -5.5h-4v0z" />
    <glyph glyph-name="caron" unicode="&#x2c7;" 
d="M250 528q-2 0 -21.5 17t-45.5 47q-25 29 -38.5 47.5t-13.5 30.5q0 17 15 17q10 0 23 -12.5t42 -49.5l20 -27l20 -26l19.5 25.5l20.5 28.5q25 33 39 47t24 14q16 0 16 -17q0 -11 -13 -29t-38 -47q-29 -32 -48 -49t-21 -17z" />
    <glyph glyph-name="Euro" unicode="&#x20ac;" horiz-adv-x="624" 
d="M387 -10q-103 0 -167.5 62t-81.5 174h-79q-23 0 -23 19v4q0 19 23 19h74q-1 8 -1 16.5v17.5v45v18t1 19h-74q-23 0 -23 19v4q0 19 23 19h80q18 107 82 169t161 62q60 0 100 -18.5t64 -43.5q17 -17 25 -34.5t8 -30.5q0 -8 -4 -13.5t-9.5 -9t-10 -4.5t-5.5 0
q-9 22 -23.5 42.5t-35 36t-48 24.5t-63.5 9q-75 0 -125.5 -50.5t-67.5 -138.5h230q14 0 19 -4.5t5 -14.5v-4q0 -10 -5 -14.5t-19 -4.5h-236q-1 -9 -1 -18v-19v-47v-16t1 -16h236q14 0 19 -4.5t5 -14.5v-4q0 -10 -5 -14.5t-19 -4.5h-230q17 -88 68.5 -141t129.5 -53
q36 0 64 9.5t48.5 26t34.5 38t23 45.5q1 1 5.5 0t10 -4t10 -9t4.5 -15q0 -14 -9.5 -33t-27.5 -37q-26 -26 -66.5 -44.5t-94.5 -18.5z" />
    <glyph glyph-name="Eth" unicode="&#xd0;" horiz-adv-x="711" 
d="M151 0q-13 0 -21.5 8.5t-8.5 21.5v272h-76q-14 0 -18.5 5t-4.5 14v5q0 9 4.5 14.5t18.5 5.5h76v271q0 13 8.5 21.5t21.5 8.5h156q83 0 149 -22t112 -64t70.5 -101.5t24.5 -134.5t-25 -135.5t-72 -102.5t-113.5 -64.5t-150.5 -22.5h-151v0zM308 45q146 0 225 73.5
t79 205.5q0 65 -20 116.5t-58.5 87.5t-94.5 55t-128 19h-140v-256h227q23 0 23 -20v-5q0 -19 -23 -19h-227v-257h137z" />
    <glyph glyph-name="eth" unicode="&#xf0;" horiz-adv-x="553" 
d="M270 -10q-51 0 -93 15t-72 43.5t-46.5 69.5t-16.5 92q0 50 17 90t47.5 67.5t73 42.5t93.5 15q32 0 61 -8t53 -21.5t43 -31.5t30 -37q-8 81 -44 142t-92 102l-131 -76q-19 -11 -29 5l-1 4q-11 15 10 28l112 62q-43 24 -91 37t-98 15q-2 0 -2 6.5t3.5 14t11.5 13.5t23 6
q17 0 40 -3.5t49.5 -11.5t55.5 -20.5t57 -31.5l114 66q12 7 18.5 5t11.5 -10l2 -3q5 -8 2.5 -14.5t-13.5 -13.5l-101 -56q29 -24 55 -56t45 -71.5t30 -88t11 -105.5q0 -67 -17 -119.5t-48 -88.5t-75 -55t-99 -19zM270 32q49 0 84.5 18t59 50t35 76.5t11.5 98.5
q-9 20 -26.5 39.5t-42 35t-54 25t-61.5 9.5q-88 0 -136.5 -44.5t-48.5 -128.5q0 -86 49 -132.5t130 -46.5z" />
    </font>
</defs>
</svg>
