<svg id="Layer_1" data-name="Layer 1" xmlns="http://www.w3.org/2000/svg" xmlns:xlink="http://www.w3.org/1999/xlink" viewBox="0 0 87.46 207.3"><defs><style>.cls-1{fill:#fff;}.cls-2{fill:#e6e7e8;}.cls-3{fill:url(#linear-gradient);}.cls-4{fill:url(#linear-gradient-2);}.cls-5,.cls-6{fill:#f1f0f0;stroke:#de5c39;stroke-miterlimit:10;}.cls-5{stroke-width:0.6px;}.cls-6{stroke-width:0.4px;}</style><linearGradient id="linear-gradient" x1="306.04" y1="485.17" x2="306.04" y2="406.41" gradientUnits="userSpaceOnUse"><stop offset="0" stop-color="#e9e1a2"/><stop offset="0.24" stop-color="#e9d89e"/><stop offset="0.63" stop-color="#e7c093"/><stop offset="1" stop-color="#e6a285"/></linearGradient><linearGradient id="linear-gradient-2" x1="295.62" y1="436.63" x2="295.62" y2="338.13" gradientUnits="userSpaceOnUse"><stop offset="0" stop-color="#e9e1a2"/><stop offset="0.15" stop-color="#e8da9d"/><stop offset="0.38" stop-color="#e7c58e"/><stop offset="0.66" stop-color="#e5a475"/><stop offset="0.97" stop-color="#e17553"/><stop offset="1" stop-color="#e17150"/></linearGradient></defs><title>Logo</title><path class="cls-1" d="M272,523.92a14.74,14.74,0,0,1-5.7-1.06,12.06,12.06,0,0,1-4.32-3,13.6,13.6,0,0,1-2.74-4.54,17.22,17.22,0,0,1,0-11.47A13.9,13.9,0,0,1,262,499.3a12.44,12.44,0,0,1,4.32-3,14.09,14.09,0,0,1,5.59-1.08,12.62,12.62,0,0,1,5.36,1,11.89,11.89,0,0,1,3.37,2.25,6.66,6.66,0,0,1,1.3,1.75,3.47,3.47,0,0,1,.43,1.32.73.73,0,0,1-.37.73c-.25.12-.4.14-.45.09a9,9,0,0,0-3.39-4.1,10.52,10.52,0,0,0-2.81-1.3,12.94,12.94,0,0,0-8.45.52,11.37,11.37,0,0,0-3.84,2.74,12.42,12.42,0,0,0-2.48,4.17,16,16,0,0,0,0,10.43,12.19,12.19,0,0,0,2.46,4.15,11.25,11.25,0,0,0,3.89,2.74,12.68,12.68,0,0,0,5.1,1,12,12,0,0,0,4-.6,9.86,9.86,0,0,0,2.89-1.55,8.35,8.35,0,0,0,1.9-2.1,8.67,8.67,0,0,0,1-2.22c.06-.06.23,0,.52.11a.71.71,0,0,1,.43.71,4.58,4.58,0,0,1-.5,1.58,7.69,7.69,0,0,1-1.62,2.22,11.06,11.06,0,0,1-3.37,2.14A13.13,13.13,0,0,1,272,523.92Z" transform="translate(-251.89 -316.62)"/><path class="cls-1" d="M293,523.92a7.47,7.47,0,0,1-6.13-2.53,10.19,10.19,0,0,1-2.07-6.67V503.79q0-.65.61-.65h.17q.6,0,.6.65v10.84a9,9,0,0,0,1.75,5.83,6.2,6.2,0,0,0,5.12,2.16,7.75,7.75,0,0,0,4.67-1.4,8.66,8.66,0,0,0,2.94-3.78V503.79q0-.65.61-.65h.17q.6,0,.61.65v19.65c0,.12-.16.17-.48.17a.84.84,0,0,1-.65-.28,1.77,1.77,0,0,1-.26-1.14v-3a8.38,8.38,0,0,1-2.94,3.39A8.14,8.14,0,0,1,293,523.92Z" transform="translate(-251.89 -316.62)"/><path class="cls-1" d="M305.53,522.93V503.32q0-.17.48-.17a.85.85,0,0,1,.65.28,1.77,1.77,0,0,1,.26,1.14v3.84a7.25,7.25,0,0,1,2.16-4.28,5.5,5.5,0,0,1,3.63-1.3,4.48,4.48,0,0,1,1.86.39q.86.39.86,1a.94.94,0,0,1-.15.58c-.1.13-.18.18-.24.15a3,3,0,0,0-1.06-.56,4.57,4.57,0,0,0-1.4-.22,4.63,4.63,0,0,0-4.21,2.42,13.25,13.25,0,0,0-1.45,6.78v9.55q0,.69-.6.69h-.13Q305.53,523.62,305.53,522.93Z" transform="translate(-251.89 -316.62)"/><path class="cls-1" d="M322.72,523.88a8.21,8.21,0,0,1-5.1-1.45,4.7,4.7,0,0,1-1.9-4,5,5,0,0,1,.82-2.89,5.85,5.85,0,0,1,2.63-2,18.36,18.36,0,0,1,4.69-1.17,57.83,57.83,0,0,1,7-.43h.43v-1.3a6.45,6.45,0,0,0-1.77-4.84,6.76,6.76,0,0,0-4.92-1.73,8.68,8.68,0,0,0-4.6,1.12,6.78,6.78,0,0,0-2.66,2.81,1.83,1.83,0,0,1-.43-.13q-.35-.13-.35-.69a1.92,1.92,0,0,1,.3-.8,4.37,4.37,0,0,1,.86-1.06,9.42,9.42,0,0,1,2.64-1.75,10.23,10.23,0,0,1,4.36-.8,8,8,0,0,1,5.83,2.07,7.68,7.68,0,0,1,2.12,5.75v12.79q0,.17-.47.17a.78.78,0,0,1-.63-.28,1.89,1.89,0,0,1-.24-1.14v-3.54a7.8,7.8,0,0,1-3.13,3.74A9.73,9.73,0,0,1,322.72,523.88Zm.13-1.17a9.52,9.52,0,0,0,3.3-.56,8.45,8.45,0,0,0,2.66-1.53,7.33,7.33,0,0,0,1.79-2.33,6.61,6.61,0,0,0,.67-3v-2.2h-.48a63.27,63.27,0,0,0-6.37.35,16.88,16.88,0,0,0-4.23,1,5.18,5.18,0,0,0-2.35,1.66,4,4,0,0,0-.73,2.4,3.59,3.59,0,0,0,1.58,3.13A7.14,7.14,0,0,0,322.85,522.71Z" transform="translate(-251.89 -316.62)"/><path class="cls-2" d="M281.53,363.7a14.28,14.28,0,0,1-7.34-15.28c1.11-5.73,5.07-9.84,12.35-10.27,0,0,8.77.1,8.07,6.66-.61,5.72-13.21,5.14-14.78,13.31C279.38,360.49,281.53,363.7,281.53,363.7Z" transform="translate(-251.89 -316.62)"/><path class="cls-3" d="M332.15,437.83c5.11-7.26,6.08-31.21-23.57-32.54a9,9,0,0,1,2.31.69c7.55,4.37,6.37,10.88.15,18-4.73,5.4-22.6,21.25-27.64,27.37-8.08,9.82-7.6,21.83-2.59,28.49,10.51,14,26.06,6.24,26,6.13s-19.41,1.07-17-15.48C292,455.5,321.82,452.5,332.15,437.83Z" transform="translate(-251.89 -316.62)"/><path class="cls-4" d="M308.87,405.35c-9.38-.84-17,1.48-24.25,1.08-18.65-1-30.76-11.51-32.49-27.67-2.48-23.1,15.59-42.23,35.76-40.51-14-.93-19,16-7.1,24.88,10.12,7.53,32.79,13.88,43.72,23.81,12.84,11.65,21.37,30.43,8.41,49.7C332.9,436.63,344.2,408.49,308.87,405.35Z" transform="translate(-251.89 -316.62)"/><rect class="cls-5" x="56.59" y="138.05" width="8" height="8" rx="0.67" ry="0.67"/><rect class="cls-5" x="46.99" y="128.49" width="8" height="8" rx="0.67" ry="0.67"/><rect class="cls-5" x="45.13" y="104.77" width="8" height="8" rx="0.67" ry="0.67"/><rect class="cls-5" x="56.99" y="119.99" width="8" height="8" rx="0.67" ry="0.67"/><rect class="cls-5" x="308.54" y="330.73" width="8" height="8" rx="0.67" ry="0.67" transform="translate(373.19 352.83) rotate(180)"/><rect class="cls-5" x="318.14" y="340.28" width="8" height="8" rx="0.67" ry="0.67" transform="translate(392.39 371.94) rotate(180)"/><rect class="cls-5" x="320" y="364" width="8" height="8" rx="0.67" ry="0.67" transform="translate(396.11 419.38) rotate(180)"/><rect class="cls-5" x="308.14" y="348.78" width="8" height="8" rx="0.67" ry="0.67" transform="translate(372.39 388.94) rotate(180)"/><rect class="cls-6" x="62.94" y="148.04" width="6" height="6" rx="0.67" ry="0.67"/><rect class="cls-6" x="42.97" y="120.51" width="6" height="6" rx="0.67" ry="0.67"/><rect class="cls-6" x="66.77" y="139.78" width="6" height="6" rx="0.67" ry="0.67"/><rect class="cls-6" x="66.74" y="125.61" width="6" height="6" rx="0.67" ry="0.67"/><rect class="cls-6" x="304.19" y="322.74" width="6" height="6" rx="0.67" ry="0.67" transform="matrix(-1, 0, 0, -1, 362.49, 334.85)"/><rect class="cls-6" x="324.16" y="350.26" width="6" height="6" rx="0.67" ry="0.67" transform="matrix(-1, 0, 0, -1, 402.43, 389.89)"/><rect class="cls-6" x="300.36" y="330.99" width="6" height="6" rx="0.67" ry="0.67" transform="matrix(-1, 0, 0, -1, 354.83, 351.36)"/><rect class="cls-6" x="300.39" y="345.16" width="6" height="6" rx="0.67" ry="0.67" transform="matrix(-1, 0, 0, -1, 354.9, 379.69)"/><rect class="cls-6" x="57.14" y="129.95" width="6" height="6" rx="0.67" ry="0.67"/><rect class="cls-6" x="309.99" y="340.83" width="6" height="6" rx="0.67" ry="0.67" transform="matrix(-1, 0, 0, -1, 374.1, 371.03)"/><rect class="cls-6" x="57.8" y="155.95" width="4" height="4" rx="0.67" ry="0.67"/><rect class="cls-6" x="56.79" y="148.78" width="4" height="4" rx="0.67" ry="0.67"/><rect class="cls-6" x="69.93" y="133.61" width="4" height="4" rx="0.67" ry="0.67"/><rect class="cls-6" x="50.97" y="138.45" width="4" height="4" rx="0.67" ry="0.67"/><rect class="cls-6" x="42.3" y="114.61" width="4" height="4" rx="0.67" ry="0.67"/><rect class="cls-6" x="55.3" y="108.28" width="4" height="4" rx="0.67" ry="0.67"/><rect class="cls-6" x="60.97" y="113.78" width="4" height="4" rx="0.67" ry="0.67"/><rect class="cls-6" x="51.12" y="122.61" width="4" height="4" rx="0.67" ry="0.67"/><rect class="cls-6" x="51.12" y="116.61" width="4" height="4" rx="0.67" ry="0.67"/><rect class="cls-6" x="50.47" y="98.28" width="4" height="4" rx="0.67" ry="0.67"/><rect class="cls-6" x="311.33" y="316.82" width="4" height="4" rx="0.67" ry="0.67" transform="translate(374.78 321.01) rotate(180)"/><rect class="cls-6" x="312.34" y="323.99" width="4" height="4" rx="0.67" ry="0.67" transform="translate(376.79 335.36) rotate(180)"/><rect class="cls-6" x="299.19" y="339.16" width="4" height="4" rx="0.67" ry="0.67" transform="translate(350.5 365.69) rotate(180)"/><rect class="cls-6" x="318.16" y="334.33" width="4" height="4" rx="0.67" ry="0.67" transform="translate(388.43 356.03) rotate(180)"/><rect class="cls-6" x="326.83" y="358.17" width="4" height="4" rx="0.67" ry="0.67" transform="translate(405.78 403.71) rotate(180)"/><rect class="cls-6" x="313.83" y="364.49" width="4" height="4" rx="0.67" ry="0.67" transform="translate(379.77 416.36) rotate(180)"/><rect class="cls-6" x="308.16" y="358.99" width="4" height="4" rx="0.67" ry="0.67" transform="translate(368.44 405.36) rotate(180)"/><rect class="cls-6" x="318.01" y="350.16" width="4" height="4" rx="0.67" ry="0.67" transform="translate(388.13 387.69) rotate(180)"/><rect class="cls-6" x="318.01" y="356.16" width="4" height="4" rx="0.67" ry="0.67" transform="translate(388.13 399.69) rotate(180)"/><rect class="cls-6" x="318.66" y="374.49" width="4" height="4" rx="0.67" ry="0.67" transform="translate(389.44 436.36) rotate(180)"/></svg>