<svg id="Layer_1" data-name="Layer 1" xmlns="http://www.w3.org/2000/svg" viewBox="0 0 35.6 37.63"><defs><style>.cls-1{fill:#fff;}</style></defs><title>Location-Arrow</title><path class="cls-1" d="M51.1,48.3a3.55,3.55,0,0,0,.2-1,3,3,0,0,0-.2-1h0a2.36,2.36,0,0,0-.6-.9l-9.8-9.8a2.76,2.76,0,1,0-3.9,3.9l5.1,5.1H18.5a2.8,2.8,0,0,0-2.8,2.8V69.6a2.8,2.8,0,0,0,2.8,2.8,2.73,2.73,0,0,0,2.8-2.8V50.1H41.9l-5,5a2.72,2.72,0,0,0,0,3.9,2.79,2.79,0,0,0,2,.8,3,3,0,0,0,2-.8l9.7-9.7a9.25,9.25,0,0,1,.5-1Z" transform="translate(-15.7 -34.77)"/></svg>