<svg id="Layer_1" data-name="Layer 1" xmlns="http://www.w3.org/2000/svg" viewBox="0 0 21.58 31.86"><defs><style>.cls-1{fill:#fff;}.cls-2{fill:none;stroke:#fff;stroke-miterlimit:10;}</style></defs><title>Scroll</title><path class="cls-1" d="M155,254.52h-6.61a7,7,0,0,0-7,7.1v9.1a.76.76,0,1,0,1.52,0v-9.1a5.49,5.49,0,0,1,5.47-5.56H155a5.49,5.49,0,0,1,5.47,5.56v16.66a5.49,5.49,0,0,1-5.47,5.55h-6.61a5.49,5.49,0,0,1-5.47-5.55v-1.39a.76.76,0,1,0-1.52,0v1.39a7,7,0,0,0,7,7.1H155a7,7,0,0,0,7-7V261.62A7,7,0,0,0,155,254.52Z" transform="translate(-140.87 -254.02)"/><path class="cls-2" d="M155,254.52h-6.61a7,7,0,0,0-7,7.1v9.1a.76.76,0,1,0,1.52,0v-9.1a5.49,5.49,0,0,1,5.47-5.56H155a5.49,5.49,0,0,1,5.47,5.56v16.66a5.49,5.49,0,0,1-5.47,5.55h-6.61a5.49,5.49,0,0,1-5.47-5.55v-1.39a.76.76,0,1,0-1.52,0v1.39a7,7,0,0,0,7,7.1H155a7,7,0,0,0,7-7V261.62A7,7,0,0,0,155,254.52Z" transform="translate(-140.87 -254.02)"/></svg>